<svg id="Layer_1" data-name="Layer 1" xmlns="http://www.w3.org/2000/svg" xmlns:xlink="http://www.w3.org/1999/xlink" viewBox="0 0 186 171"><defs><style>.cls-1{fill:url(#linear-gradient);}.cls-2{fill:none;stroke:#fff;stroke-linecap:round;opacity:0.3;}.cls-2,.cls-6,.cls-7{stroke-miterlimit:10;}.cls-2,.cls-6{stroke-width:2px;}.cls-3{fill:#ddd;}.cls-4{fill:url(#linear-gradient-2);}.cls-5{opacity:0.9;fill:url(#radial-gradient);}.cls-6,.cls-7{fill:#fff;stroke:#f2ba29;}.cls-7{stroke-width:3px;}.cls-8{fill:#f3ba2c;}.cls-9{fill:#efba1c;stroke:#efba1c;}</style><linearGradient id="linear-gradient" x1="24.57" y1="26.86" x2="62.78" y2="26.86" gradientTransform="translate(9.67 -5.36) rotate(-0.67)" gradientUnits="userSpaceOnUse"><stop offset="0" stop-color="#0570b7"/><stop offset="1" stop-color="#78479c"/></linearGradient><linearGradient id="linear-gradient-2" x1="102" y1="-761.92" x2="145.17" y2="-761.92" gradientTransform="translate(-186.09 -699.08) rotate(152.44)" xlink:href="#linear-gradient"/><radialGradient id="radial-gradient" cx="92.44" cy="17" r="93.47" gradientTransform="translate(-36.19 -2.91) rotate(6.19)" gradientUnits="userSpaceOnUse"><stop offset="0" stop-color="#62ccec"/><stop offset="1" stop-color="#fff" stop-opacity="0"/></radialGradient></defs><path class="cls-1" d="M49.33,6c10.27-2.8,20.55,2.29,23,11.37S67.46,32.78,57.18,35.58s-19.68,1-22.09-8.09S39.05,8.78,49.33,6Z"/><path class="cls-2" d="M52,8.77s10.45-2.28,16.88,9.52"/><path class="cls-3" d="M81.71,34.65c-9.44,10.8-28.54,17.9-42.66,15.86s-17.92-12.45-8.47-23.2S59.12,9.41,73.24,11.45,91.15,23.85,81.71,34.65Z"/><path class="cls-4" d="M74,35.76c-6.43,7.12-19.3,11.9-28.76,10.7s-11.94-8-5.51-15.09S59,19.46,68.49,20.67,80.41,28.62,74,35.76Z"/><path class="cls-5" d="M36.73,41.61,0,147.59l172,18.66,10.2-94L75.59,23.57C65.61,14.23,32.29,27.46,36.73,41.61Z"/><circle class="cls-6" cx="49.18" cy="92.1" r="38.47"/><circle class="cls-7" cx="128.72" cy="116.97" r="50.46"/><g id="Layer_2" data-name="Layer 2"><g id="Layer_1-2" data-name="Layer 1-2"><path class="cls-8" d="M114.51,110.92,130,95.45l15.48,15.48,9-9L130,77.44l-24.47,24.48,9,9m-24.36,6.36,9-9,9,9-9,9Zm24.36,6.35L130,139.11l15.48-15.48,9,9h0L130,157.11l-24.47-24.47,0,0,9-9m37.3-6.35,9-9,9,9-9,9Z"/><path class="cls-8" d="M139.11,117.27h0L130,108.14l-6.75,6.75h0l-.77.77-1.6,1.6h0l0,0,9.12,9.13,9.14-9.14h0"/></g></g><g id="Layer_2-2" data-name="Layer 2"><g id="Layer_1-2-2" data-name="Layer 1-2"><path class="cls-9" d="M49,64,55.92,71,38.51,88.45l-6.92-6.91Z"/><path class="cls-9" d="M59.51,74.45l6.91,7.09L38.51,109.45l-6.92-6.91Z"/><path class="cls-9" d="M28,85,34.92,92,28,99,21.09,92Z"/><path class="cls-9" d="M70,85,76.92,92,49,120,42.09,113Z"/></g></g></svg>