<svg id="Layer_1" data-name="Layer 1" xmlns="http://www.w3.org/2000/svg" xmlns:xlink="http://www.w3.org/1999/xlink" viewBox="0 0 186 171"><defs><style>.cls-1{fill:url(#linear-gradient);}.cls-2{fill:none;stroke:#fff;stroke-linecap:round;opacity:0.3;}.cls-2,.cls-6,.cls-7{stroke-miterlimit:10;}.cls-2,.cls-6{stroke-width:2px;}.cls-3{fill:#ddd;}.cls-4{fill:url(#linear-gradient-2);}.cls-5{opacity:0.9;fill:url(#radial-gradient);}.cls-6,.cls-7{fill:#fff;}.cls-6{stroke:#808285;}.cls-7{stroke:#f2ba29;stroke-width:3px;}.cls-8{fill:#efba1c;stroke:#efba1c;}.cls-9{fill:#343434;}.cls-10{fill:#8c8c8c;}.cls-11{fill:#3d3d3c;}.cls-12{fill:#161616;}.cls-13{fill:#3a3a39;}</style><linearGradient id="linear-gradient" x1="24.54" y1="32.05" x2="62.75" y2="32.05" gradientTransform="translate(9.64 -10.56) rotate(-0.67)" gradientUnits="userSpaceOnUse"><stop offset="0" stop-color="#0570b7"/><stop offset="1" stop-color="#78479c"/></linearGradient><linearGradient id="linear-gradient-2" x1="-740.51" y1="-968.54" x2="-697.35" y2="-968.54" gradientTransform="translate(-1028.6 -492.46) rotate(152.44)" xlink:href="#linear-gradient"/><radialGradient id="radial-gradient" cx="89.84" cy="-31.15" r="93.47" gradientTransform="translate(-38.79 45.24) rotate(6.19)" gradientUnits="userSpaceOnUse"><stop offset="0" stop-color="#62ccec"/><stop offset="1" stop-color="#fff" stop-opacity="0"/></radialGradient></defs><path class="cls-1" d="M49.33,6c10.27-2.8,20.55,2.29,23,11.37S67.46,32.78,57.18,35.58s-19.68,1-22.09-8.09S39.05,8.78,49.33,6Z"/><path class="cls-2" d="M52,8.77s10.45-2.28,16.88,9.52"/><path class="cls-3" d="M81.71,34.65c-9.44,10.8-28.54,17.9-42.66,15.86s-17.92-12.45-8.47-23.2S59.12,9.41,73.24,11.45,91.15,23.85,81.71,34.65Z"/><path class="cls-4" d="M74,35.76c-6.43,7.12-19.3,11.9-28.76,10.7s-11.94-8-5.51-15.09S59,19.46,68.49,20.67,80.41,28.62,74,35.76Z"/><path class="cls-5" d="M36.73,41.61,0,147.59l172,18.66,10.2-94L75.59,23.57C65.61,14.23,32.29,27.46,36.73,41.61Z"/><circle class="cls-6" cx="48.18" cy="92.1" r="38.47"/><circle class="cls-7" cx="128.72" cy="116.97" r="50.46"/><g id="Layer_2" data-name="Layer 2"><g id="Layer_1-2" data-name="Layer 1-2"><path class="cls-8" d="M130.89,79.62l9.49,9.72-23.89,23.88L107,103.74Z"/><path class="cls-8" d="M145.29,94l9.49,9.72L116.49,142,107,132.54Z"/><path class="cls-8" d="M102.09,108.42l9.49,9.72-9.49,9.49-9.49-9.49Z"/><path class="cls-8" d="M159.69,108.42l9.49,9.72-38.29,38.29-9.48-9.49Z"/></g></g><g id="Layer_1-2-2" data-name="Layer_1"><g id="_1421394342400" data-name=" 1421394342400"><polygon class="cls-9" points="48.17 62.1 47.77 63.47 47.77 103.14 48.17 103.54 66.59 92.66 48.17 62.1"/><polygon class="cls-10" points="48.17 62.1 29.76 92.66 48.17 103.54 48.17 84.29 48.17 62.1"/><polygon class="cls-11" points="48.17 107.03 47.95 107.31 47.95 121.44 48.17 122.1 66.6 96.15 48.17 107.03"/><polygon class="cls-10" points="48.17 122.1 48.17 107.03 29.76 96.15 48.17 122.1"/><polygon class="cls-12" points="48.17 103.54 66.59 92.66 48.17 84.29 48.17 103.54"/><polygon class="cls-13" points="29.76 92.66 48.17 103.54 48.17 84.29 29.76 92.66"/></g></g></svg>