<svg id="Layer_1" data-name="Layer 1" xmlns="http://www.w3.org/2000/svg" xmlns:xlink="http://www.w3.org/1999/xlink" viewBox="0 0 186 171"><defs><style>.cls-1,.cls-3{fill:none;}.cls-2{fill:url(#linear-gradient);}.cls-3{stroke:#fff;stroke-linecap:round;opacity:0.3;}.cls-3,.cls-7,.cls-8{stroke-miterlimit:10;}.cls-3,.cls-7{stroke-width:2px;}.cls-4{fill:#ddd;}.cls-5{fill:url(#linear-gradient-2);}.cls-6{opacity:0.9;fill:url(#radial-gradient);}.cls-18,.cls-19,.cls-7,.cls-8{fill:#fff;}.cls-7{stroke:url(#linear-gradient-3);}.cls-8{stroke:#ef549e;stroke-width:3px;}.cls-9{fill:url(#linear-gradient-4);}.cls-10{fill:url(#linear-gradient-5);}.cls-11{fill:url(#linear-gradient-6);}.cls-12{fill:#643a8c;}.cls-13{clip-path:url(#clip-path);}.cls-14{fill:url(#linear-gradient-7);}.cls-15{fill:url(#linear-gradient-8);}.cls-16{fill:url(#linear-gradient-9);}.cls-17{fill:#131424;}.cls-18{fill-rule:evenodd;}</style><linearGradient id="linear-gradient" x1="22.3" y1="29.49" x2="60.51" y2="29.49" gradientTransform="translate(11.91 -8.02) rotate(-0.67)" gradientUnits="userSpaceOnUse"><stop offset="0" stop-color="#0570b7"/><stop offset="1" stop-color="#78479c"/></linearGradient><linearGradient id="linear-gradient-2" x1="-237.01" y1="-1232.71" x2="-193.84" y2="-1232.71" gradientTransform="translate(-704.45 -959.61) rotate(152.44)" xlink:href="#linear-gradient"/><radialGradient id="radial-gradient" cx="112.02" cy="-8.63" r="93.47" gradientTransform="translate(-58.41 20.46) rotate(6.19)" gradientUnits="userSpaceOnUse"><stop offset="0" stop-color="#62ccec"/><stop offset="1" stop-color="#fff" stop-opacity="0"/></radialGradient><linearGradient id="linear-gradient-3" x1="8.71" y1="92.1" x2="87.64" y2="92.1" gradientUnits="userSpaceOnUse"><stop offset="0" stop-color="#78479c"/><stop offset="1" stop-color="#0570b7"/></linearGradient><linearGradient id="linear-gradient-4" x1="-51.78" y1="-415.58" x2="-51.9" y2="-415.67" gradientTransform="matrix(216.84, 0, 0, -276.25, 11289.97, -114740.46)" xlink:href="#linear-gradient-3"/><linearGradient id="linear-gradient-5" x1="-46.73" y1="-409.57" x2="-46.7" y2="-409.72" gradientTransform="matrix(-108.42, 187.79, 239.14, 138.07, 92955.05, 65426.3)" xlink:href="#linear-gradient-3"/><linearGradient id="linear-gradient-6" x1="-55.84" y1="-409.07" x2="-55.97" y2="-409.16" gradientTransform="matrix(-108.42, -187.79, -239.14, 138.07, -103865.99, 46089.95)" xlink:href="#linear-gradient"/><clipPath id="clip-path"><rect class="cls-1" x="93.14" y="81.78" width="73.69" height="73.69"/></clipPath><linearGradient id="linear-gradient-7" x1="131.69" y1="-86.82" x2="143.02" y2="-47.93" gradientTransform="translate(-12 170.11)" gradientUnits="userSpaceOnUse"><stop offset="0" stop-color="#44b3e7"/><stop offset="1" stop-color="#ef549e"/></linearGradient><linearGradient id="linear-gradient-8" x1="140.97" y1="-89.52" x2="152.3" y2="-50.63" xlink:href="#linear-gradient-7"/><linearGradient id="linear-gradient-9" x1="122.52" y1="-84.15" x2="133.85" y2="-45.26" xlink:href="#linear-gradient-7"/></defs><path class="cls-2" d="M49.33,6c10.27-2.8,20.55,2.29,23,11.37S67.46,32.78,57.18,35.58s-19.68,1-22.09-8.09S39.05,8.78,49.33,6Z"/><path class="cls-3" d="M52,8.77s10.45-2.28,16.88,9.52"/><path class="cls-4" d="M81.71,34.65c-9.44,10.8-28.54,17.9-42.66,15.86s-17.92-12.45-8.47-23.2S59.12,9.41,73.24,11.45,91.15,23.85,81.71,34.65Z"/><path class="cls-5" d="M74,35.76c-6.43,7.12-19.3,11.9-28.76,10.7s-11.94-8-5.51-15.09S59,19.46,68.49,20.67,80.41,28.62,74,35.76Z"/><path class="cls-6" d="M36.73,41.61,0,147.59l172,18.66,10.2-94L75.59,23.57C65.61,14.23,32.29,27.46,36.73,41.61Z"/><circle class="cls-7" cx="48.18" cy="92.1" r="38.47"/><circle class="cls-8" cx="128.72" cy="116.97" r="50.46"/><g id="Symbol"><path id="Path_5168" data-name="Path 5168" class="cls-9" d="M28.58,101.24A5.23,5.23,0,0,1,33.82,96l.48,0,5.53-9.57-.61-.58a13,13,0,0,1-2.81-4.16A13.11,13.11,0,0,1,53.58,64.54a13.2,13.2,0,0,1,7,7,13.13,13.13,0,0,1,1,5.1,13,13,0,0,1-.61,4L62.3,81l-5.53,3.72-2.3-6.26,1.87.61a8.34,8.34,0,0,0-.27-5.66,8.36,8.36,0,0,0-1.77-2.62,8.24,8.24,0,0,0-11.64,0,8.36,8.36,0,0,0-1.77,2.62,8.16,8.16,0,0,0-.64,3.2,8,8,0,0,0,.64,3.2,8.55,8.55,0,0,0,1.45,2.29h0s0,0,0,.05l0,0h0l0,0h0l0,0h0l.17.17a8.36,8.36,0,0,0,2.62,1.77h0c.22.09.44.17.67.24h0l0,0h.47L38.39,98.68a5.09,5.09,0,0,1,.66,2.56,5.24,5.24,0,0,1-5.23,5.24h0A5.24,5.24,0,0,1,28.58,101.24Zm14.59-24.7a5.25,5.25,0,0,1,5.24-5.24h0a5.24,5.24,0,1,1-5.24,5.24Z"/><path id="Path_5169" data-name="Path 5169" class="cls-10" d="M51.05,72A5.24,5.24,0,0,1,53,79.2c-.08.14-.17.28-.26.41l5.53,9.58c.26-.09.53-.17.8-.24a13.09,13.09,0,1,1-6.28,21.48l-1,.94-.45-6.65,6.56,1.14-1.46,1.31a8.23,8.23,0,1,0,4.38-13.63h-.22l-.23,0A8.36,8.36,0,0,0,57.45,95h0l0,0h0l-.55.46h0l0,0h0l0,0h0l0,0h0v0h0l0,0h0v0h0v0h0l0,0h0l0,0h0l0,0h0l0,0,0,0L48.36,81.82a5.24,5.24,0,1,1,.14-10.48A5.45,5.45,0,0,1,51.05,72ZM65.14,97A5.24,5.24,0,1,1,58,99,5.25,5.25,0,0,1,65.14,97Z"/><path id="Path_5170" data-name="Path 5170" class="cls-11" d="M65.22,106.12a5.26,5.26,0,0,1-7.16-1.92c-.08-.14-.15-.29-.22-.44H46.78a7.51,7.51,0,0,1-.19.82A13.09,13.09,0,1,1,31.13,88.4L30.84,87l6,2.93-4.27,5.12-.41-1.92a8.24,8.24,0,1,0,9.62,10.6h0a.14.14,0,0,0,0-.07l0,0v-.1h0l.06-.23a8.15,8.15,0,0,0,.22-3.15h0v0h0c0-.24-.08-.47-.13-.71h0v0h0v0h0v0h0v0h0v0h0v-.12h0v0h0v0h0v0h0V98.9H58.1a5.24,5.24,0,0,1,9,5.36A5.16,5.16,0,0,1,65.22,106.12Z"/><path id="Path_5171" data-name="Path 5171" class="cls-12" d="M48.06,87.46l5.24,9H42.82Z"/></g><g class="cls-13"><path class="cls-14" d="M108.49,88.84l57.11,39-14.12,20.88L94.36,109.41Z"/><path class="cls-15" d="M165.6,127.84c-4.91,7.06-21.49,4.3-37.15-6.76-16-10.75-24.57-25.18-20-32.24,4.91-7.06,21.49-4.3,37.15,6.76C161.61,106,170.21,120.77,165.6,127.84Z"/><path class="cls-16" d="M151.48,148.41c-4.92,7.06-21.5,4.3-37.16-6.76s-24.56-25.17-19.65-32.54c4.91-7.07,21.5-4.3,37.16,6.75S156.08,141.35,151.48,148.41Z"/><path class="cls-17" d="M165.6,127.84h0l-14.12,20.88h0c-4.92,7.06-21.5,4-37.16-6.76a93.16,93.16,0,0,1-8.59-6.75c2.14-.31,4.91-1.54,7.67-4.61,4.91-5.22,7.37-6.45,9.52-6.14,2.15,0,4.61,2.15,8.6,7.37s9.52,6.75,12.89,4c.31-.31.62-.31.93-.61,2.76-2.15,3.68-3.07,8.9-12.9a9.66,9.66,0,0,1,11.36-4.61C167.14,121.7,167.14,125.07,165.6,127.84Z"/><path class="cls-18" d="M163.45,126.61c-4.3,6.14-19.34,3.07-33.77-7.06-14.74-10.14-23.34-23-19-29.17s19.34-3.07,33.77,7.06S167.44,120.47,163.45,126.61Zm-13.51-9.21c-2.15,3.07-9.52,1.53-16.89-3.38-7.06-4.91-11.36-11.36-9.21-14.43s9.52-1.54,16.89,3.38C147.79,107.88,152.09,114.33,149.94,117.4Z"/><path class="cls-19" d="M107.26,95.9c0-.3-.31-.61-.61-.3s-.62.3-.62.61a7.78,7.78,0,0,1,.62,2.15c0,.31.3.61.61.31.31,0,.61-.31.31-.62A6,6,0,0,0,107.26,95.9Z"/><path class="cls-19" d="M108.8,100.82c0-.31-.31-.62-.62-.31s-.31.31-.31.61c3.38,7.68,10.44,16,19.66,22.11.3.31.61,0,.92,0,.3-.31,0-.61,0-.92C118.93,116.17,112.17,108.19,108.8,100.82Z"/><path class="cls-19" d="M146,130.91c-.31,0-.61,0-.61.3s0,.62.3.62c.92.31,2.15.61,3.07.92.31,0,.62,0,.62-.31s0-.61-.31-.61C148.1,131.52,146.87,131.21,146,130.91Z"/><path class="cls-19" d="M151.48,132.14a.61.61,0,1,0,0,1.22,30,30,0,0,0,7.37.31.62.62,0,0,0,0-1.23A29.85,29.85,0,0,1,151.48,132.14Z"/></g></svg>