<svg id="Layer_1" data-name="Layer 1" xmlns="http://www.w3.org/2000/svg" xmlns:xlink="http://www.w3.org/1999/xlink" viewBox="0 0 186 171"><defs><style>.cls-1{fill:url(#linear-gradient);}.cls-2{fill:none;stroke:#fff;stroke-linecap:round;opacity:0.3;}.cls-2,.cls-6,.cls-7{stroke-miterlimit:10;}.cls-2,.cls-6{stroke-width:2px;}.cls-3{fill:#ddd;}.cls-4{fill:url(#linear-gradient-2);}.cls-5{opacity:0.9;fill:url(#radial-gradient);}.cls-6,.cls-7{fill:#fff;}.cls-6{stroke:#4a4b4d;}.cls-7{stroke-width:3px;stroke:url(#linear-gradient-3);}.cls-8{fill:url(#linear-gradient-4);}.cls-9{fill:url(#linear-gradient-5);}.cls-10{fill:url(#linear-gradient-6);}.cls-11{fill:#643a8c;}.cls-12{fill:url(#linear-gradient-7);}</style><linearGradient id="linear-gradient" x1="24.53" y1="34.39" x2="62.74" y2="34.39" gradientTransform="translate(9.63 -12.9) rotate(-0.67)" gradientUnits="userSpaceOnUse"><stop offset="0" stop-color="#0570b7"/><stop offset="1" stop-color="#78479c"/></linearGradient><linearGradient id="linear-gradient-2" x1="-1120.38" y1="-1061.7" x2="-1077.22" y2="-1061.7" gradientTransform="translate(-1408.47 -399.3) rotate(152.44)" xlink:href="#linear-gradient"/><radialGradient id="radial-gradient" cx="88.66" cy="-52.87" r="93.47" gradientTransform="translate(-39.97 66.95) rotate(6.19)" gradientUnits="userSpaceOnUse"><stop offset="0" stop-color="#62ccec"/><stop offset="1" stop-color="#fff" stop-opacity="0"/></radialGradient><linearGradient id="linear-gradient-3" x1="76.76" y1="116.97" x2="180.68" y2="116.97" gradientUnits="userSpaceOnUse"><stop offset="0" stop-color="#78479c"/><stop offset="1" stop-color="#0570b7"/></linearGradient><linearGradient id="linear-gradient-4" x1="-470.17" y1="-221.13" x2="-470.32" y2="-221.24" gradientTransform="matrix(216.84, 0, 0, -276.25, 102097.85, -61002.18)" xlink:href="#linear-gradient-3"/><linearGradient id="linear-gradient-5" x1="-469.28" y1="-214.45" x2="-469.25" y2="-214.63" gradientTransform="matrix(-108.42, 187.79, 239.14, 138.07, 567.84, 117864.94)" xlink:href="#linear-gradient-3"/><linearGradient id="linear-gradient-6" x1="-477.03" y1="-217.1" x2="-477.19" y2="-217.21" gradientTransform="matrix(-108.42, -187.79, -239.14, 138.07, -103548.81, -59483.96)" xlink:href="#linear-gradient"/><linearGradient id="linear-gradient-7" x1="31.96" y1="-1367.99" x2="70.05" y2="-1367.99" gradientTransform="matrix(1, 0, 0, -1, 0, -1275.89)" gradientUnits="userSpaceOnUse"><stop offset="0" stop-color="#f99c1c"/><stop offset="1" stop-color="#fee123"/></linearGradient></defs><path class="cls-1" d="M49.33,6c10.27-2.8,20.55,2.29,23,11.37S67.46,32.78,57.18,35.58s-19.68,1-22.09-8.09S39.05,8.78,49.33,6Z"/><path class="cls-2" d="M52,8.77s10.45-2.28,16.88,9.52"/><path class="cls-3" d="M81.71,34.65c-9.44,10.8-28.54,17.9-42.66,15.86s-17.92-12.45-8.47-23.2S59.12,9.41,73.24,11.45,91.15,23.85,81.71,34.65Z"/><path class="cls-4" d="M74,35.76c-6.43,7.12-19.3,11.9-28.76,10.7s-11.94-8-5.51-15.09S59,19.46,68.49,20.67,80.41,28.62,74,35.76Z"/><path class="cls-5" d="M36.73,41.61,0,147.59l172,18.66,10.2-94L75.59,23.57C65.61,14.23,32.29,27.46,36.73,41.61Z"/><circle class="cls-6" cx="48.18" cy="92.1" r="38.47"/><circle class="cls-7" cx="128.72" cy="116.97" r="50.46"/><g id="Symbol"><path id="Path_5168" data-name="Path 5168" class="cls-8" d="M104.39,130.12a6.5,6.5,0,0,1,6.5-6.5c.21,0,.41,0,.61,0l6.86-11.88c-.26-.23-.51-.47-.76-.72a16.26,16.26,0,1,1,27.76-11.49,16.39,16.39,0,0,1-.76,4.91l1.65.54-6.87,4.61-2.85-7.77,2.33.76a10.54,10.54,0,0,0,.46-3,10.22,10.22,0,0,0-6.24-9.42,10.3,10.3,0,0,0-8,0,10.24,10.24,0,0,0-3.25,2.19,10.22,10.22,0,0,0-.39,14h0l.06.07,0,0v0l0,0h0l0,0h0l.21.21a10,10,0,0,0,3.25,2.19h0l0,0h0c.28.11.56.22.84.31h.63l-10.08,17.47a6.52,6.52,0,0,1-5.68,9.68h0A6.5,6.5,0,0,1,104.39,130.12ZM122.5,99.46A6.52,6.52,0,0,1,129,93h0a6.51,6.51,0,1,1-6.51,6.51Z"/><path id="Path_5169" data-name="Path 5169" class="cls-9" d="M132.28,93.88a6.49,6.49,0,0,1,2.38,8.88,4.45,4.45,0,0,1-.33.51l6.87,11.89c.32-.11.66-.21,1-.3a16.25,16.25,0,1,1-7.81,26.67l-1.29,1.16-.55-8.25,8.15,1.42-1.82,1.63a10.23,10.23,0,1,0,5.43-16.93h0l-.09,0h-.17l-.29.07a10.22,10.22,0,0,0-3.52,1.72h0l0,0h0c-.23.18-.46.37-.68.58h0l0,0h0l0,0h0l0,0h0l0,0h0l0,0h0l0,0,0,0h0l0,0,0,0,0,0h0l0,0v0l0,0h0l0,0h0l0,0,0,0L128.94,106a6.5,6.5,0,1,1,.18-13A6.39,6.39,0,0,1,132.28,93.88Zm17.5,31a6.5,6.5,0,1,1-8.89,2.38A6.5,6.5,0,0,1,149.78,124.9Z"/><path id="Path_5170" data-name="Path 5170" class="cls-10" d="M149.88,136.17a6.51,6.51,0,0,1-8.89-2.38,4.53,4.53,0,0,1-.27-.54H127q-.1.51-.24,1a16.25,16.25,0,1,1-19.2-20.09l-.36-1.7,7.43,3.64-5.3,6.35-.51-2.38a10.23,10.23,0,1,0,12,13.16h0s0-.05,0-.08l0,0v0l0,0V133c0-.09,0-.19.08-.28a10.32,10.32,0,0,0,.27-3.91v0h0v0h0c0-.29-.09-.59-.15-.88h0v0h0v0h0v-.09h0v-.25h0v-.08h0v0l0,0H141a6.51,6.51,0,1,1,8.84,9Z"/><path id="Path_5171" data-name="Path 5171" class="cls-11" d="M128.57,113l6.51,11.15h-13Z"/></g><path class="cls-12" d="M51.05,78.15H45.84V88.54h5.21a8.63,8.63,0,1,1-8.7,8.65V77.51C42.35,72.24,37.7,68,32,68V97.19A17.39,17.39,0,0,0,32.05,99a19,19,0,1,0,19-20.82Z"/></svg>