<svg id="Layer_1" data-name="Layer 1" xmlns="http://www.w3.org/2000/svg" xmlns:xlink="http://www.w3.org/1999/xlink" viewBox="0 0 186 171"><defs><style>.cls-1{fill:url(#linear-gradient);}.cls-2{fill:none;stroke:#fff;stroke-linecap:round;opacity:0.3;}.cls-2,.cls-6,.cls-7{stroke-miterlimit:10;}.cls-2,.cls-6{stroke-width:2px;}.cls-3{fill:#ddd;}.cls-4{fill:url(#linear-gradient-2);}.cls-5{opacity:0.9;fill:url(#radial-gradient);}.cls-6,.cls-7{fill:#fff;}.cls-6{stroke:#842983;}.cls-7{stroke-width:3px;stroke:url(#linear-gradient-3);}.cls-8{fill:url(#linear-gradient-4);}.cls-9{fill:url(#linear-gradient-5);}.cls-10{fill:url(#linear-gradient-6);}.cls-11{fill:#643a8c;}.cls-12{fill:#499744;}.cls-13{fill:#8bc23f;}.cls-14{fill:#852983;}</style><linearGradient id="linear-gradient" x1="22.27" y1="34.42" x2="60.48" y2="34.42" gradientTransform="translate(11.88 -12.95) rotate(-0.67)" gradientUnits="userSpaceOnUse"><stop offset="0" stop-color="#0570b7"/><stop offset="1" stop-color="#78479c"/></linearGradient><linearGradient id="linear-gradient-2" x1="-1036.75" y1="-1428.84" x2="-993.58" y2="-1428.84" gradientTransform="translate(-1504.19 -763.48) rotate(152.44)" xlink:href="#linear-gradient"/><radialGradient id="radial-gradient" cx="109.54" cy="-54.34" r="93.47" gradientTransform="translate(-60.89 66.17) rotate(6.19)" gradientUnits="userSpaceOnUse"><stop offset="0" stop-color="#62ccec"/><stop offset="1" stop-color="#fff" stop-opacity="0"/></radialGradient><linearGradient id="linear-gradient-3" x1="76.76" y1="116.97" x2="180.68" y2="116.97" gradientUnits="userSpaceOnUse"><stop offset="0" stop-color="#78479c"/><stop offset="1" stop-color="#0570b7"/></linearGradient><linearGradient id="linear-gradient-4" x1="-473.35" y1="-415.65" x2="-473.51" y2="-415.76" gradientTransform="matrix(216.84, 0, 0, -276.25, 102788.97, -114740.46)" xlink:href="#linear-gradient-3"/><linearGradient id="linear-gradient-5" x1="-471.72" y1="-407.91" x2="-471.68" y2="-408.1" gradientTransform="matrix(-108.42, 187.79, 239.14, 138.07, 46569.67, 145033.88)" xlink:href="#linear-gradient-3"/><linearGradient id="linear-gradient-6" x1="-481.02" y1="-410.58" x2="-481.17" y2="-410.69" gradientTransform="matrix(-108.42, -187.79, -239.14, 138.07, -150251.37, -33517.63)" xlink:href="#linear-gradient"/></defs><path class="cls-1" d="M49.33,6c10.27-2.8,20.55,2.29,23,11.37S67.46,32.78,57.18,35.58s-19.68,1-22.09-8.09S39.05,8.78,49.33,6Z"/><path class="cls-2" d="M52,8.77s10.45-2.28,16.88,9.52"/><path class="cls-3" d="M81.71,34.65c-9.44,10.8-28.54,17.9-42.66,15.86s-17.92-12.45-8.47-23.2S59.12,9.41,73.24,11.45,91.15,23.85,81.71,34.65Z"/><path class="cls-4" d="M74,35.76c-6.43,7.12-19.3,11.9-28.76,10.7s-11.94-8-5.51-15.09S59,19.46,68.49,20.67,80.41,28.62,74,35.76Z"/><path class="cls-5" d="M36.73,41.61,0,147.59l172,18.66,10.2-94L75.59,23.57C65.61,14.23,32.29,27.46,36.73,41.61Z"/><circle class="cls-6" cx="48.18" cy="92.1" r="38.47"/><circle class="cls-7" cx="128.72" cy="116.97" r="50.46"/><g id="Symbol"><path id="Path_5168" data-name="Path 5168" class="cls-8" d="M104.39,130.28a6.5,6.5,0,0,1,6.5-6.5l.61,0,6.86-11.88c-.26-.23-.51-.47-.76-.72a16.26,16.26,0,0,1,5.17-26.47,16.24,16.24,0,0,1,17.82,3.48,16.21,16.21,0,0,1,4.77,11.5,16.46,16.46,0,0,1-.76,4.92l1.65.53-6.87,4.61L136.53,102l2.33.76a10.54,10.54,0,0,0,.46-3.05,10.25,10.25,0,0,0-.8-4,10.25,10.25,0,0,0-5.44-5.44,10.22,10.22,0,0,0-11.21,2.19,10.2,10.2,0,0,0-.39,14h0l.06.07,0,0v0l0,0h0l0,0h0l.21.21a10,10,0,0,0,3.25,2.19h0l0,0h0c.28.11.56.22.84.31h.63L116.57,127.1a6.52,6.52,0,0,1-5.68,9.68h0A6.5,6.5,0,0,1,104.39,130.28ZM122.5,99.62a6.51,6.51,0,0,1,6.51-6.5h0a6.5,6.5,0,1,1-6.51,6.5Z"/><path id="Path_5169" data-name="Path 5169" class="cls-9" d="M132.28,94a6.5,6.5,0,0,1,2.38,8.88,4.45,4.45,0,0,1-.33.51l6.87,11.89c.32-.11.66-.21,1-.3a16.25,16.25,0,1,1-7.81,26.67l-1.29,1.17-.55-8.26L140.7,136l-1.82,1.63a10.23,10.23,0,1,0,5.43-16.93h0l-.09,0h-.17l-.29.07a10.22,10.22,0,0,0-3.52,1.72h0l0,0h0c-.23.18-.46.38-.68.58h0l0,0h0l0,0h0l0,0h0l0,0h0l0,0v0h0l0,0v0l0,0h0l0,0h0l0,0h0l0,0h0l0,0h0l0,0,0,0-10.09-17.47a6.51,6.51,0,0,1,.18-13A6.39,6.39,0,0,1,132.28,94Zm17.5,31a6.51,6.51,0,1,1-8.89,2.38A6.51,6.51,0,0,1,149.78,125.06Z"/><path id="Path_5170" data-name="Path 5170" class="cls-10" d="M149.88,136.34A6.52,6.52,0,0,1,141,134q-.15-.27-.27-.54H127c-.07.34-.15.67-.24,1a16.25,16.25,0,1,1-19.2-20.09l-.36-1.7,7.43,3.64-5.3,6.35-.51-2.38a10.23,10.23,0,1,0,12,13.17h0s0-.06,0-.09l0-.05v0l0,0v-.07c0-.09,0-.19.08-.28a10.32,10.32,0,0,0,.27-3.91h0v0h0c0-.29-.09-.59-.15-.88h0v0h0v0h0v0h0v-.25h0v-.08h0v0h0v0l0,0H141a6.5,6.5,0,1,1,8.84,9Z"/><path id="Path_5171" data-name="Path 5171" class="cls-11" d="M128.57,113.18l6.51,11.15h-13Z"/></g><path class="cls-12" d="M49,62.78s7.92,7.58,3.67,19.82-9.74-8.41-9.74-8.41S42.71,67.86,49,62.78Z"/><path class="cls-13" d="M64,68.56S53,68.32,47.36,80s12.84.94,12.84.94S64.79,76.57,64,68.56Z"/><path class="cls-13" d="M31.71,68.56s11-.24,16.61,11.42-12.84.94-12.84.94S30.89,76.57,31.71,68.56Z"/><polygon class="cls-14" points="34.28 79.41 27.82 91.25 42.31 119.42 53.37 119.42 68.54 90.44 61.57 79.41 34.28 79.41"/></svg>