<svg id="Layer_1" data-name="Layer 1" xmlns="http://www.w3.org/2000/svg" xmlns:xlink="http://www.w3.org/1999/xlink" viewBox="0 0 186 171"><defs><style>.cls-1{fill:url(#linear-gradient);}.cls-2{fill:none;stroke:#fff;stroke-linecap:round;opacity:0.3;}.cls-2,.cls-6,.cls-7{stroke-miterlimit:10;}.cls-2,.cls-6{stroke-width:2px;}.cls-3{fill:#ddd;}.cls-4{fill:url(#linear-gradient-2);}.cls-5{opacity:0.9;fill:url(#radial-gradient);}.cls-6,.cls-7{fill:#fff;}.cls-6{stroke:#f2ba29;}.cls-7{stroke:#d1884d;stroke-width:3px;}.cls-8{fill:#f3ba2c;}.cls-12,.cls-9{fill:#623312;}.cls-11,.cls-9{fill-rule:evenodd;}.cls-10{fill:#fddc90;}.cls-11{fill:#d1884e;}</style><linearGradient id="linear-gradient" x1="29.45" y1="25.9" x2="67.65" y2="25.9" gradientTransform="translate(4.81 -4.35) rotate(-0.67)" gradientUnits="userSpaceOnUse"><stop offset="0" stop-color="#0570b7"/><stop offset="1" stop-color="#78479c"/></linearGradient><linearGradient id="linear-gradient-2" x1="68.84" y1="67.28" x2="112" y2="67.28" gradientTransform="translate(168.15 51.38) rotate(152.44)" xlink:href="#linear-gradient"/><radialGradient id="radial-gradient" cx="47.79" cy="28.62" r="93.47" gradientTransform="translate(9.45 -9.65) rotate(6.19)" gradientUnits="userSpaceOnUse"><stop offset="0" stop-color="#62ccec"/><stop offset="1" stop-color="#fff" stop-opacity="0"/></radialGradient></defs><path class="cls-1" d="M49.33,6c10.27-2.8,20.55,2.29,23,11.37S67.46,32.78,57.18,35.58s-19.68,1-22.09-8.09S39.05,8.78,49.33,6Z"/><path class="cls-2" d="M52,8.77s10.45-2.28,16.88,9.52"/><path class="cls-3" d="M81.71,34.65c-9.44,10.8-28.54,17.9-42.66,15.86s-17.92-12.45-8.47-23.2S59.12,9.41,73.24,11.45,91.15,23.85,81.71,34.65Z"/><path class="cls-4" d="M74,35.76c-6.43,7.12-19.3,11.9-28.76,10.7s-11.94-8-5.51-15.09S59,19.46,68.49,20.67,80.41,28.62,74,35.76Z"/><path class="cls-5" d="M36.73,41.61,0,147.59l172,18.66,10.2-94L75.59,23.57C65.61,14.23,32.29,27.46,36.73,41.61Z"/><circle class="cls-6" cx="48.18" cy="92.1" r="38.47"/><circle class="cls-7" cx="128.72" cy="116.97" r="50.46"/><g id="Layer_2" data-name="Layer 2"><g id="Layer_1-2" data-name="Layer 1-2"><path class="cls-8" d="M36.25,87.82,48,76.07,59.76,87.83,66.6,81,48,62.39,29.42,81l6.83,6.84m-18.5,4.83,6.84-6.84,6.83,6.84-6.83,6.84Zm18.5,4.83L48,109.23,59.76,97.48l6.85,6.83h0L48,122.91,29.42,104.32h0l6.84-6.83m28.34-4.83,6.84-6.83,6.83,6.83-6.83,6.84Z"/><path class="cls-8" d="M54.94,92.65h0L48,85.71l-5.13,5.13h0l-.59.59-1.22,1.21h0L48,99.59l6.93-6.93h0"/></g></g><path class="cls-9" d="M107.57,93.05a8.73,8.73,0,1,1,17.3-1.67v10.84c1.25,0,2.5-.21,3.75-.21a20,20,0,0,1,3.54.21V91.38a8.8,8.8,0,0,1,8.75-8.75,9,9,0,0,1,8.75,10.42l-2.29,12.71c8.13,3.54,14.38,9.79,14.38,17.5v4.8c0,6.45-4.17,11.87-10.21,15.41-6,3.76-14,5.84-22.92,5.84s-16.88-2.08-22.92-5.84c-5.84-3.54-10-9-10-15.41v-4.8c0-7.71,6-14,14.16-17.5Zm36.67,14.38,2.71-15a6.15,6.15,0,0,0-6-7.29,6,6,0,0,0-6,6v13.76a11.84,11.84,0,0,0-2.71-.21c-1.25,0-2.29-.21-3.54-.21a22.47,22.47,0,0,0-3.75.21c-.84,0-1.88.21-2.71.21V91.38a6,6,0,1,0-11.88,1.25l2.71,15C104.24,111,98.4,116.8,98.4,123.47v4.79c0,10.21,13.55,18.55,30.22,18.55s30.21-8.34,30.21-18.55v-4.79C159,116.59,153.2,110.76,144.24,107.43Z"/><path class="cls-10" d="M159,128.06c0,10.21-13.54,18.54-30.21,18.54s-30.22-8.33-30.22-18.54v-4.8h60.64v4.8Z"/><path class="cls-11" d="M110.28,92.63a6,6,0,1,1,11.88-1.25v13.75c2.08-.2,4.17-.41,6.46-.41,2.08,0,4.16.21,6.25.41V91.38a6,6,0,0,1,6-6,6.26,6.26,0,0,1,6,7.29l-2.71,15C153,111,159,116.8,159,123.47,159,133.68,145.5,142,128.83,142s-30.22-8.34-30.22-18.55c0-6.67,5.84-12.5,14.59-15.83Z"/><path class="cls-12" d="M120.28,122c0,2.71-1.46,5-3.33,5s-3.34-2.29-3.34-5,1.46-5,3.34-5S120.28,119.3,120.28,122Z"/><path class="cls-12" d="M143.41,122c0,2.71-1.46,5-3.33,5s-3.34-2.29-3.34-5,1.46-5,3.34-5S143.41,119.3,143.41,122Z"/></svg>