<svg id="Layer_1" data-name="Layer 1" xmlns="http://www.w3.org/2000/svg" xmlns:xlink="http://www.w3.org/1999/xlink" viewBox="0 0 186 171"><defs><style>.cls-1{fill:url(#linear-gradient);}.cls-2{fill:none;stroke:#fff;stroke-linecap:round;opacity:0.3;}.cls-2,.cls-6,.cls-7{stroke-miterlimit:10;}.cls-2,.cls-6{stroke-width:2px;}.cls-3{fill:#ddd;}.cls-4{fill:url(#linear-gradient-2);}.cls-5{opacity:0.9;fill:url(#radial-gradient);}.cls-6,.cls-7{fill:#fff;}.cls-6{stroke:#808285;}.cls-7{stroke:#f2ba29;stroke-width:3px;}.cls-8{fill:#f3ba2c;}.cls-9{fill:#343434;}.cls-10{fill:#8c8c8c;}.cls-11{fill:#3d3d3c;}.cls-12{fill:#161616;}.cls-13{fill:#3a3a39;}</style><linearGradient id="linear-gradient" x1="24.56" y1="29.5" x2="62.76" y2="29.5" gradientTransform="translate(9.66 -8.01) rotate(-0.67)" gradientUnits="userSpaceOnUse"><stop offset="0" stop-color="#0570b7"/><stop offset="1" stop-color="#78479c"/></linearGradient><linearGradient id="linear-gradient-2" x1="-326.68" y1="-867.05" x2="-283.52" y2="-867.05" gradientTransform="translate(-614.77 -593.95) rotate(152.44)" xlink:href="#linear-gradient"/><radialGradient id="radial-gradient" cx="91.12" cy="-7.5" r="93.47" gradientTransform="translate(-37.52 21.59) rotate(6.19)" gradientUnits="userSpaceOnUse"><stop offset="0" stop-color="#62ccec"/><stop offset="1" stop-color="#fff" stop-opacity="0"/></radialGradient></defs><path class="cls-1" d="M49.33,6c10.27-2.8,20.55,2.29,23,11.37S67.46,32.78,57.18,35.58s-19.68,1-22.09-8.09S39.05,8.78,49.33,6Z"/><path class="cls-2" d="M52,8.77s10.45-2.28,16.88,9.52"/><path class="cls-3" d="M81.71,34.65c-9.44,10.8-28.54,17.9-42.66,15.86s-17.92-12.45-8.47-23.2S59.12,9.41,73.24,11.45,91.15,23.85,81.71,34.65Z"/><path class="cls-4" d="M74,35.76c-6.43,7.12-19.3,11.9-28.76,10.7s-11.94-8-5.51-15.09S59,19.46,68.49,20.67,80.41,28.62,74,35.76Z"/><path class="cls-5" d="M36.73,41.61,0,147.59l172,18.66,10.2-94L75.59,23.57C65.61,14.23,32.29,27.46,36.73,41.61Z"/><circle class="cls-6" cx="48.18" cy="92.1" r="38.47"/><circle class="cls-7" cx="128.72" cy="116.97" r="50.46"/><g id="Layer_2" data-name="Layer 2"><g id="Layer_1-2" data-name="Layer 1-2"><path class="cls-8" d="M114.51,110.92,130,95.45l15.48,15.48,9-9L130,77.44l-24.47,24.48,9,9m-24.36,6.36,9-9,9,9-9,9Zm24.36,6.35L130,139.11l15.48-15.48,9,9h0L130,157.11l-24.47-24.47,0,0,9-9m37.3-6.35,9-9,9,9-9,9Z"/><path class="cls-8" d="M139.11,117.27h0L130,108.14l-6.75,6.75h0l-.77.77-1.6,1.6h0l0,0,9.12,9.13,9.14-9.14h0"/></g></g><g id="Layer_1-2-2" data-name="Layer_1"><g id="_1421394342400" data-name=" 1421394342400"><polygon class="cls-9" points="48.79 61.84 48.39 63.2 48.39 102.88 48.79 103.28 67.2 92.39 48.79 61.84"/><polygon class="cls-10" points="48.79 61.84 30.37 92.39 48.79 103.28 48.79 84.02 48.79 61.84"/><polygon class="cls-11" points="48.79 106.77 48.56 107.04 48.56 121.17 48.79 121.84 67.22 95.89 48.79 106.77"/><polygon class="cls-10" points="48.79 121.84 48.79 106.77 30.37 95.89 48.79 121.84"/><polygon class="cls-12" points="48.79 103.28 67.2 92.39 48.79 84.02 48.79 103.28"/><polygon class="cls-13" points="30.37 92.39 48.79 103.28 48.79 84.02 30.37 92.39"/></g></g></svg>