<svg id="Layer_1" data-name="Layer 1" xmlns="http://www.w3.org/2000/svg" xmlns:xlink="http://www.w3.org/1999/xlink" viewBox="0 0 186 171"><defs><style>.cls-1{fill:url(#linear-gradient);}.cls-2{fill:none;stroke:#fff;stroke-linecap:round;opacity:0.3;}.cls-2,.cls-6,.cls-7{stroke-miterlimit:10;}.cls-2,.cls-6{stroke-width:2px;}.cls-3{fill:#ddd;}.cls-4{fill:url(#linear-gradient-2);}.cls-5{opacity:0.9;fill:url(#radial-gradient);}.cls-6,.cls-7{fill:#fff;}.cls-6{stroke:url(#linear-gradient-3);}.cls-7{stroke:#d1884d;stroke-width:3px;}.cls-8{fill:url(#linear-gradient-4);}.cls-9{fill:url(#linear-gradient-5);}.cls-10{fill:url(#linear-gradient-6);}.cls-11{fill:#643a8c;}.cls-12,.cls-15{fill:#623312;}.cls-12,.cls-14{fill-rule:evenodd;}.cls-13{fill:#fddc90;}.cls-14{fill:#d1884e;}</style><linearGradient id="linear-gradient" x1="27.07" y1="30.67" x2="65.28" y2="30.67" gradientTransform="translate(7.12 -9.15) rotate(-0.67)" gradientUnits="userSpaceOnUse"><stop offset="0" stop-color="#0570b7"/><stop offset="1" stop-color="#78479c"/></linearGradient><linearGradient id="linear-gradient-2" x1="-615.25" y1="-503.61" x2="-572.09" y2="-503.61" gradientTransform="translate(-702.45 -138.23) rotate(152.44)" xlink:href="#linear-gradient"/><radialGradient id="radial-gradient" cx="67.12" cy="-16.99" r="93.47" gradientTransform="translate(-14.69 33.61) rotate(6.19)" gradientUnits="userSpaceOnUse"><stop offset="0" stop-color="#62ccec"/><stop offset="1" stop-color="#fff" stop-opacity="0"/></radialGradient><linearGradient id="linear-gradient-3" x1="8.71" y1="92.1" x2="87.64" y2="92.1" gradientUnits="userSpaceOnUse"><stop offset="0" stop-color="#78479c"/><stop offset="1" stop-color="#0570b7"/></linearGradient><linearGradient id="linear-gradient-4" x1="-151.04" y1="-3.16" x2="-151.16" y2="-3.25" gradientTransform="matrix(216.84, 0, 0, -276.25, 32813.21, -808.56)" xlink:href="#linear-gradient-3"/><linearGradient id="linear-gradient-5" x1="-148.32" y1="0.93" x2="-148.29" y2="0.79" gradientTransform="matrix(-108.42, 187.79, 239.14, 138.07, -16228.62, 27825.62)" xlink:href="#linear-gradient-3"/><linearGradient id="linear-gradient-6" x1="-154.15" y1="0.8" x2="-154.27" y2="0.71" gradientTransform="matrix(-108.42, -187.79, -239.14, 138.07, -16504.71, -28962.79)" xlink:href="#linear-gradient"/></defs><path class="cls-1" d="M49.33,6c10.27-2.8,20.55,2.29,23,11.37S67.46,32.78,57.18,35.58s-19.68,1-22.09-8.09S39.05,8.78,49.33,6Z"/><path class="cls-2" d="M52,8.77s10.45-2.28,16.88,9.52"/><path class="cls-3" d="M81.71,34.65c-9.44,10.8-28.54,17.9-42.66,15.86s-17.92-12.45-8.47-23.2S59.12,9.41,73.24,11.45,91.15,23.85,81.71,34.65Z"/><path class="cls-4" d="M74,35.76c-6.43,7.12-19.3,11.9-28.76,10.7s-11.94-8-5.51-15.09S59,19.46,68.49,20.67,80.41,28.62,74,35.76Z"/><path class="cls-5" d="M36.73,41.61,0,147.59l172,18.66,10.2-94L75.59,23.57C65.61,14.23,32.29,27.46,36.73,41.61Z"/><circle class="cls-6" cx="48.18" cy="92.1" r="38.47"/><circle class="cls-7" cx="128.72" cy="116.97" r="50.46"/><g id="Symbol"><path id="Path_5168" data-name="Path 5168" class="cls-8" d="M28.58,101.24A5.23,5.23,0,0,1,33.82,96l.48,0,5.53-9.57-.61-.58a13,13,0,0,1-2.81-4.16A13.11,13.11,0,0,1,53.58,64.54a13.2,13.2,0,0,1,7,7,13.13,13.13,0,0,1,1,5.1,13,13,0,0,1-.61,4L62.3,81l-5.53,3.72-2.3-6.26,1.87.61a8.34,8.34,0,0,0-.27-5.66,8.36,8.36,0,0,0-1.77-2.62,8.24,8.24,0,0,0-11.64,0,8.36,8.36,0,0,0-1.77,2.62,8.16,8.16,0,0,0-.64,3.2,8,8,0,0,0,.64,3.2,8.55,8.55,0,0,0,1.45,2.29h0s0,0,0,.05l0,0h0l0,0h0l0,0h0l.17.17a8.36,8.36,0,0,0,2.62,1.77h0c.22.09.44.17.67.24h0l0,0h.47L38.39,98.68a5.09,5.09,0,0,1,.66,2.56,5.24,5.24,0,0,1-5.23,5.24h0A5.24,5.24,0,0,1,28.58,101.24Zm14.59-24.7a5.25,5.25,0,0,1,5.24-5.24h0a5.24,5.24,0,1,1-5.24,5.24Z"/><path id="Path_5169" data-name="Path 5169" class="cls-9" d="M51.05,72A5.24,5.24,0,0,1,53,79.2c-.08.14-.17.28-.26.41l5.53,9.58c.26-.09.53-.17.8-.24a13.09,13.09,0,1,1-6.28,21.48l-1,.94-.45-6.65,6.56,1.14-1.46,1.31a8.23,8.23,0,1,0,4.38-13.63h-.22l-.23,0A8.36,8.36,0,0,0,57.45,95h0l0,0h0l-.55.46h0l0,0h0l0,0h0l0,0h0v0h0l0,0h0v0h0v0h0l0,0h0l0,0h0l0,0h0l0,0,0,0L48.36,81.82a5.24,5.24,0,1,1,.14-10.48A5.45,5.45,0,0,1,51.05,72ZM65.14,97A5.24,5.24,0,1,1,58,99,5.25,5.25,0,0,1,65.14,97Z"/><path id="Path_5170" data-name="Path 5170" class="cls-10" d="M65.22,106.12a5.26,5.26,0,0,1-7.16-1.92c-.08-.14-.15-.29-.22-.44H46.78a7.51,7.51,0,0,1-.19.82A13.09,13.09,0,1,1,31.13,88.4L30.84,87l6,2.93-4.27,5.12-.41-1.92a8.24,8.24,0,1,0,9.62,10.6h0a.14.14,0,0,0,0-.07l0,0v-.1h0l.06-.23a8.15,8.15,0,0,0,.22-3.15h0v0h0c0-.24-.08-.47-.13-.71h0v0h0v0h0v0h0v0h0v0h0v-.12h0v0h0v0h0v0h0V98.9H58.1a5.24,5.24,0,0,1,9,5.36A5.16,5.16,0,0,1,65.22,106.12Z"/><path id="Path_5171" data-name="Path 5171" class="cls-11" d="M48.06,87.46l5.24,9H42.82Z"/></g><path class="cls-12" d="M107.57,93.36a8.73,8.73,0,1,1,17.3-1.67v10.84c1.25,0,2.5-.21,3.75-.21a20,20,0,0,1,3.54.21V91.69a8.8,8.8,0,0,1,8.75-8.75,9,9,0,0,1,8.75,10.42l-2.29,12.71c8.13,3.54,14.38,9.79,14.38,17.5v4.8c0,6.45-4.17,11.87-10.21,15.41-6,3.75-14,5.84-22.92,5.84s-16.88-2.09-22.92-5.84c-5.84-3.54-10-9-10-15.41v-4.8c0-7.71,6-14,14.16-17.5Zm36.67,14.38,2.71-15a6.15,6.15,0,0,0-6-7.29,6,6,0,0,0-6,6v13.76a11.84,11.84,0,0,0-2.71-.21c-1.25,0-2.29-.21-3.54-.21a22.47,22.47,0,0,0-3.75.21c-.84,0-1.88.21-2.71.21V91.69a6,6,0,1,0-11.88,1.25l2.71,15c-8.75,3.34-14.59,9.17-14.59,15.84v4.79c0,10.21,13.55,18.55,30.22,18.55s30.21-8.34,30.21-18.55v-4.79C159,116.9,153.2,111.07,144.24,107.74Z"/><path class="cls-13" d="M159,128.37c0,10.21-13.54,18.54-30.21,18.54s-30.22-8.33-30.22-18.54v-4.8h60.64v4.8Z"/><path class="cls-14" d="M110.28,92.94a6,6,0,1,1,11.88-1.25v13.75c2.08-.2,4.17-.41,6.46-.41,2.08,0,4.16.21,6.25.41V91.69a6,6,0,0,1,6-6,6.26,6.26,0,0,1,6,7.29l-2.71,15c8.76,3.34,14.8,9.17,14.8,15.84,0,10.21-13.54,18.55-30.21,18.55S98.61,134,98.61,123.78c0-6.67,5.84-12.5,14.59-15.84Z"/><path class="cls-15" d="M120.28,122.32c0,2.71-1.46,5-3.33,5s-3.34-2.29-3.34-5,1.46-5,3.34-5S120.28,119.61,120.28,122.32Z"/><path class="cls-15" d="M143.41,122.32c0,2.71-1.46,5-3.33,5s-3.34-2.29-3.34-5,1.46-5,3.34-5S143.41,119.61,143.41,122.32Z"/></svg>