<svg id="Layer_1" data-name="Layer 1" xmlns="http://www.w3.org/2000/svg" xmlns:xlink="http://www.w3.org/1999/xlink" viewBox="0 0 186 171"><defs><style>.cls-1{fill:url(#linear-gradient);}.cls-2{fill:none;stroke:#fff;stroke-linecap:round;opacity:0.3;}.cls-2,.cls-6,.cls-7{stroke-miterlimit:10;}.cls-2,.cls-6{stroke-width:2px;}.cls-3{fill:#ddd;}.cls-4{fill:url(#linear-gradient-2);}.cls-5{opacity:0.9;fill:url(#radial-gradient);}.cls-12,.cls-6,.cls-7{fill:#fff;}.cls-6{stroke:url(#linear-gradient-3);}.cls-7{stroke:#f2ba29;stroke-width:3px;}.cls-8{fill:url(#linear-gradient-4);}.cls-9{fill:url(#linear-gradient-5);}.cls-10{fill:url(#linear-gradient-6);}.cls-11{fill:#643a8c;}.cls-13{fill:#fbad55;fill-rule:evenodd;}.cls-14,.cls-15{stroke:#ad5729;stroke-width:1.07px;}.cls-14{fill:url(#radial-gradient-2);}.cls-15,.cls-16{fill:#ad5729;}</style><linearGradient id="linear-gradient" x1="22.32" y1="26.84" x2="60.53" y2="26.84" gradientTransform="translate(11.93 -5.38) rotate(-0.67)" gradientUnits="userSpaceOnUse"><stop offset="0" stop-color="#0570b7"/><stop offset="1" stop-color="#78479c"/></linearGradient><linearGradient id="linear-gradient-2" x1="191.68" y1="-1127.58" x2="234.84" y2="-1127.58" gradientTransform="translate(-275.76 -1064.74) rotate(152.44)" xlink:href="#linear-gradient"/><radialGradient id="radial-gradient" cx="113.34" cy="15.87" r="93.47" gradientTransform="translate(-57.09 -4.04) rotate(6.19)" gradientUnits="userSpaceOnUse"><stop offset="0" stop-color="#62ccec"/><stop offset="1" stop-color="#fff" stop-opacity="0"/></radialGradient><linearGradient id="linear-gradient-3" x1="8.71" y1="92.1" x2="87.64" y2="92.1" gradientUnits="userSpaceOnUse"><stop offset="0" stop-color="#78479c"/><stop offset="1" stop-color="#0570b7"/></linearGradient><linearGradient id="linear-gradient-4" x1="174.41" y1="-415.58" x2="174.28" y2="-415.67" gradientTransform="matrix(216.84, 0, 0, -276.25, -37755.97, -114740.46)" xlink:href="#linear-gradient-3"/><linearGradient id="linear-gradient-5" x1="181.02" y1="-410.28" x2="181.05" y2="-410.43" gradientTransform="matrix(-108.42, 187.79, 239.14, 138.07, 117818.87, 22754.48)" xlink:href="#linear-gradient-3"/><linearGradient id="linear-gradient-6" x1="171.92" y1="-408.36" x2="171.79" y2="-408.45" gradientTransform="matrix(-108.42, -187.79, -239.14, 138.07, -79002.17, 88761.77)" xlink:href="#linear-gradient"/><radialGradient id="radial-gradient-2" cx="109.39" cy="-1235.44" r="2.39" gradientTransform="matrix(0, 14.38, -14.24, 0, -17457.93, -1456.11)" gradientUnits="userSpaceOnUse"><stop offset="0.33" stop-color="#f7b451"/><stop offset="0.65" stop-color="#feca78"/><stop offset="1" stop-color="#f8991d"/></radialGradient></defs><path class="cls-1" d="M49.33,6c10.27-2.8,20.55,2.29,23,11.37S67.46,32.78,57.18,35.58s-19.68,1-22.09-8.09S39.05,8.78,49.33,6Z"/><path class="cls-2" d="M52,8.77s10.45-2.28,16.88,9.52"/><path class="cls-3" d="M81.71,34.65c-9.44,10.8-28.54,17.9-42.66,15.86s-17.92-12.45-8.47-23.2S59.12,9.41,73.24,11.45,91.15,23.85,81.71,34.65Z"/><path class="cls-4" d="M74,35.76c-6.43,7.12-19.3,11.9-28.76,10.7s-11.94-8-5.51-15.09S59,19.46,68.49,20.67,80.41,28.62,74,35.76Z"/><path class="cls-5" d="M36.73,41.61,0,147.59l172,18.66,10.2-94L75.59,23.57C65.61,14.23,32.29,27.46,36.73,41.61Z"/><circle class="cls-6" cx="48.18" cy="92.1" r="38.47"/><circle class="cls-7" cx="128.72" cy="116.97" r="50.46"/><g id="Symbol"><path id="Path_5168" data-name="Path 5168" class="cls-8" d="M28.58,101.24A5.23,5.23,0,0,1,33.82,96l.48,0,5.53-9.57-.61-.58a13,13,0,0,1-2.81-4.16A13.11,13.11,0,0,1,53.58,64.54a13.2,13.2,0,0,1,7,7,13.13,13.13,0,0,1,1,5.1,13,13,0,0,1-.61,4L62.3,81l-5.53,3.72-2.3-6.26,1.87.61a8.34,8.34,0,0,0-.27-5.66,8.36,8.36,0,0,0-1.77-2.62,8.24,8.24,0,0,0-11.64,0,8.36,8.36,0,0,0-1.77,2.62,8.16,8.16,0,0,0-.64,3.2,8,8,0,0,0,.64,3.2,8.55,8.55,0,0,0,1.45,2.29h0s0,0,0,.05l0,0h0l0,0h0l0,0h0l.17.17a8.36,8.36,0,0,0,2.62,1.77h0c.22.09.44.17.67.24h0l0,0h.47L38.39,98.68a5.09,5.09,0,0,1,.66,2.56,5.24,5.24,0,0,1-5.23,5.24h0A5.24,5.24,0,0,1,28.58,101.24Zm14.59-24.7a5.25,5.25,0,0,1,5.24-5.24h0a5.24,5.24,0,1,1-5.24,5.24Z"/><path id="Path_5169" data-name="Path 5169" class="cls-9" d="M51.05,72A5.24,5.24,0,0,1,53,79.2c-.08.14-.17.28-.26.41l5.53,9.58c.26-.09.53-.17.8-.24a13.09,13.09,0,1,1-6.28,21.48l-1,.94-.45-6.65,6.56,1.14-1.46,1.31a8.23,8.23,0,1,0,4.38-13.63h-.22l-.23,0A8.36,8.36,0,0,0,57.45,95h0l0,0h0l-.55.46h0l0,0h0l0,0h0l0,0h0v0h0l0,0h0v0h0v0h0l0,0h0l0,0h0l0,0h0l0,0,0,0L48.36,81.82a5.24,5.24,0,1,1,.14-10.48A5.45,5.45,0,0,1,51.05,72ZM65.14,97A5.24,5.24,0,1,1,58,99,5.25,5.25,0,0,1,65.14,97Z"/><path id="Path_5170" data-name="Path 5170" class="cls-10" d="M65.22,106.12a5.26,5.26,0,0,1-7.16-1.92c-.08-.14-.15-.29-.22-.44H46.78a7.51,7.51,0,0,1-.19.82A13.09,13.09,0,1,1,31.13,88.4L30.84,87l6,2.93-4.27,5.12-.41-1.92a8.24,8.24,0,1,0,9.62,10.6h0a.14.14,0,0,0,0-.07l0,0v-.1h0l.06-.23a8.15,8.15,0,0,0,.22-3.15h0v0h0c0-.24-.08-.47-.13-.71h0v0h0v0h0v0h0v0h0v0h0v-.12h0v0h0v0h0v0h0V98.9H58.1a5.24,5.24,0,0,1,9,5.36A5.16,5.16,0,0,1,65.22,106.12Z"/><path id="Path_5171" data-name="Path 5171" class="cls-11" d="M48.06,87.46l5.24,9H42.82Z"/></g><path class="cls-12" d="M147.22,115.88a.92.92,0,0,1,1.2.72l1,3.58a1,1,0,1,1-1.91.47l-1-3.58A.8.8,0,0,1,147.22,115.88ZM119.76,89.14c-.24-.48-.24-1.2.24-1.44l3.11-2.15c.47-.23,1.19-.23,1.43.24a1.4,1.4,0,0,1-.24,1.67l-3.1,2.15C120.72,89.61,120,89.61,119.76,89.14Z"/><path class="cls-13" d="M135.76,101.79A14.41,14.41,0,0,0,125,103.7,13.59,13.59,0,0,1,139.1,107a14.12,14.12,0,0,1,0,19.58A12.73,12.73,0,0,1,137,128.3a12.5,12.5,0,0,0,5.26-3.35,14.1,14.1,0,0,0,3.34-14.08A18.12,18.12,0,0,1,135.76,101.79Z"/><path class="cls-14" d="M158.44,132.83h0A32.51,32.51,0,0,1,114,146c-16-8.6-21.73-28.9-13.13-44.89a32.79,32.79,0,0,1,27.46-17.2A3.6,3.6,0,0,1,131.7,86a9.42,9.42,0,0,1,1,5.26v2.14A21.8,21.8,0,0,0,135,103a14.84,14.84,0,0,0-18.38,6.92,15.2,15.2,0,0,0,6,20.53,14.93,14.93,0,0,0,20.29-6h0a15.3,15.3,0,0,0,.72-12.9,20.58,20.58,0,0,0,9.31,2.15,21.56,21.56,0,0,0,5.49-.72,4,4,0,0,1,2.87.24c.72.48,1.19,1,1.19,1.67A37,37,0,0,1,158.44,132.83Z"/><path class="cls-15" d="M149.85,126.39l1.19-.48h0c1,2.39-.24,4.53-.95,6.21v.23a6.26,6.26,0,0,0-1,2.39,6.72,6.72,0,0,0,0,3.11,2.76,2.76,0,0,0,1.91,1.67c.72.24,1.91,0,3.35-1a33.2,33.2,0,0,0,7.87-23.4,2.43,2.43,0,0,0-1.19-1.91,4,4,0,0,0-2.86-.24,19.9,19.9,0,0,1-5.26.72,18.08,18.08,0,0,1-9.31-2.39,15.63,15.63,0,0,1-.48,12.66,8.53,8.53,0,0,1-1.19,1.91,10.89,10.89,0,0,0,3.34-1.67C147,123,149.13,124.24,149.85,126.39Zm0,0c.71,1.91-.24,3.58-1,5.25a15.1,15.1,0,0,0-1.19,2.86ZM126.93,102h0a10.59,10.59,0,0,1-7.88-.48,10.26,10.26,0,0,1-4.3-4.77,9.53,9.53,0,0,1-.72-6.21,5.86,5.86,0,0,1,2.87-4.06,33.13,33.13,0,0,1,12.41-2.63,3.38,3.38,0,0,1,2.87,1.91,6.68,6.68,0,0,1,.72,4.3,14.62,14.62,0,0,0-.24,3.34A21.8,21.8,0,0,0,135,103,13.63,13.63,0,0,0,126.93,102Z"/><circle class="cls-16" cx="104.72" cy="109.43" r="1.67"/><circle class="cls-16" cx="129.55" cy="139.28" r="1.67"/><circle class="cls-16" cx="119.05" cy="140.71" r="2.87"/></svg>