<svg id="Layer_1" data-name="Layer 1" xmlns="http://www.w3.org/2000/svg" xmlns:xlink="http://www.w3.org/1999/xlink" viewBox="0 0 186 171"><defs><style>.cls-1{fill:url(#linear-gradient);}.cls-2{fill:none;stroke:#fff;stroke-linecap:round;opacity:0.3;}.cls-2,.cls-6,.cls-7{stroke-miterlimit:10;}.cls-2,.cls-6{stroke-width:2px;}.cls-3{fill:#ddd;}.cls-4{fill:url(#linear-gradient-2);}.cls-5{opacity:0.9;fill:url(#radial-gradient);}.cls-6,.cls-7{fill:#fff;}.cls-6{stroke:url(#linear-gradient-3);}.cls-7{stroke:#f2ba29;stroke-width:3px;}.cls-8{fill:#f3ba2c;}.cls-9{fill:url(#linear-gradient-4);}.cls-10{fill:url(#linear-gradient-5);}.cls-11{fill:url(#linear-gradient-6);}.cls-12{fill:#643a8c;}</style><linearGradient id="linear-gradient" x1="27.1" y1="25.88" x2="65.31" y2="25.88" gradientTransform="translate(7.15 -4.36) rotate(-0.67)" gradientUnits="userSpaceOnUse"><stop offset="0" stop-color="#0570b7"/><stop offset="1" stop-color="#78479c"/></linearGradient><linearGradient id="linear-gradient-2" x1="162.09" y1="-312.97" x2="205.26" y2="-312.97" gradientTransform="translate(74.9 -328.87) rotate(152.44)" xlink:href="#linear-gradient"/><radialGradient id="radial-gradient" cx="69.53" cy="27.44" r="93.47" gradientTransform="translate(-12.28 -10.82) rotate(6.19)" gradientUnits="userSpaceOnUse"><stop offset="0" stop-color="#62ccec"/><stop offset="1" stop-color="#fff" stop-opacity="0"/></radialGradient><linearGradient id="linear-gradient-3" x1="8.71" y1="92.1" x2="87.64" y2="92.1" gradientUnits="userSpaceOnUse"><stop offset="0" stop-color="#78479c"/><stop offset="1" stop-color="#0570b7"/></linearGradient><linearGradient id="linear-gradient-4" x1="259.11" y1="-3.16" x2="258.99" y2="-3.25" gradientTransform="matrix(216.84, 0, 0, -276.25, -56123.41, -808.56)" xlink:href="#linear-gradient-3"/><linearGradient id="linear-gradient-5" x1="264.68" y1="-0.36" x2="264.71" y2="-0.51" gradientTransform="matrix(-108.42, 187.79, 239.14, 138.07, 28857.76, -49552.6)" xlink:href="#linear-gradient-3"/><linearGradient id="linear-gradient-6" x1="258.85" y1="2.09" x2="258.73" y2="2.01" gradientTransform="matrix(-108.42, -187.79, -239.14, 138.07, 28581.67, 48415.43)" xlink:href="#linear-gradient"/></defs><path class="cls-1" d="M49.33,6c10.27-2.8,20.55,2.29,23,11.37S67.46,32.78,57.18,35.58s-19.68,1-22.09-8.09S39.05,8.78,49.33,6Z"/><path class="cls-2" d="M52,8.77s10.45-2.28,16.88,9.52"/><path class="cls-3" d="M81.71,34.65c-9.44,10.8-28.54,17.9-42.66,15.86s-17.92-12.45-8.47-23.2S59.12,9.41,73.24,11.45,91.15,23.85,81.71,34.65Z"/><path class="cls-4" d="M74,35.76c-6.43,7.12-19.3,11.9-28.76,10.7s-11.94-8-5.51-15.09S59,19.46,68.49,20.67,80.41,28.62,74,35.76Z"/><path class="cls-5" d="M36.73,41.61,0,147.59l172,18.66,10.2-94L75.59,23.57C65.61,14.23,32.29,27.46,36.73,41.61Z"/><circle class="cls-6" cx="48.18" cy="92.1" r="38.47"/><circle class="cls-7" cx="128.72" cy="116.97" r="50.46"/><g id="Layer_2" data-name="Layer 2"><g id="Layer_1-2" data-name="Layer 1-2"><path class="cls-8" d="M114.51,110.92,130,95.45l15.48,15.48,9-9L130,77.44l-24.47,24.48,9,9m-24.36,6.36,9-9,9,9-9,9Zm24.36,6.35L130,139.11l15.48-15.48,9,9h0L130,157.11l-24.47-24.47,0,0,9-9m37.3-6.35,9-9,9,9-9,9Z"/><path class="cls-8" d="M139.11,117.27h0L130,108.14l-6.75,6.75h0l-.77.77-1.6,1.6h0l0,0,9.12,9.13,9.14-9.14h0"/></g></g><g id="Symbol"><path id="Path_5168" data-name="Path 5168" class="cls-9" d="M28.58,101.24A5.23,5.23,0,0,1,33.82,96l.48,0,5.53-9.57-.61-.58a13,13,0,0,1-2.81-4.16A13.11,13.11,0,0,1,53.58,64.54a13.2,13.2,0,0,1,7,7,13.13,13.13,0,0,1,1,5.1,13,13,0,0,1-.61,4L62.3,81l-5.53,3.72-2.3-6.26,1.87.61a8.34,8.34,0,0,0-.27-5.66,8.36,8.36,0,0,0-1.77-2.62,8.24,8.24,0,0,0-11.64,0,8.36,8.36,0,0,0-1.77,2.62,8.16,8.16,0,0,0-.64,3.2,8,8,0,0,0,.64,3.2,8.55,8.55,0,0,0,1.45,2.29h0s0,0,0,.05l0,0h0l0,0h0l0,0h0l.17.17a8.36,8.36,0,0,0,2.62,1.77h0c.22.09.44.17.67.24h0l0,0h.47L38.39,98.68a5.09,5.09,0,0,1,.66,2.56,5.24,5.24,0,0,1-5.23,5.24h0A5.24,5.24,0,0,1,28.58,101.24Zm14.59-24.7a5.25,5.25,0,0,1,5.24-5.24h0a5.24,5.24,0,1,1-5.24,5.24Z"/><path id="Path_5169" data-name="Path 5169" class="cls-10" d="M51.05,72A5.24,5.24,0,0,1,53,79.2c-.08.14-.17.28-.26.41l5.53,9.58c.26-.09.53-.17.8-.24a13.09,13.09,0,1,1-6.28,21.48l-1,.94-.45-6.65,6.56,1.14-1.46,1.31a8.23,8.23,0,1,0,4.38-13.63h-.22l-.23,0A8.36,8.36,0,0,0,57.45,95h0l0,0h0l-.55.46h0l0,0h0l0,0h0l0,0h0v0h0l0,0h0v0h0v0h0l0,0h0l0,0h0l0,0h0l0,0,0,0L48.36,81.82a5.24,5.24,0,1,1,.14-10.48A5.45,5.45,0,0,1,51.05,72ZM65.14,97A5.24,5.24,0,1,1,58,99,5.25,5.25,0,0,1,65.14,97Z"/><path id="Path_5170" data-name="Path 5170" class="cls-11" d="M65.22,106.12a5.26,5.26,0,0,1-7.16-1.92c-.08-.14-.15-.29-.22-.44H46.78a7.51,7.51,0,0,1-.19.82A13.09,13.09,0,1,1,31.13,88.4L30.84,87l6,2.93-4.27,5.12-.41-1.92a8.24,8.24,0,1,0,9.62,10.6h0a.14.14,0,0,0,0-.07l0,0v-.1h0l.06-.23a8.15,8.15,0,0,0,.22-3.15h0v0h0c0-.24-.08-.47-.13-.71h0v0h0v0h0v0h0v0h0v0h0v-.12h0v0h0v0h0v0h0V98.9H58.1a5.24,5.24,0,0,1,9,5.36A5.16,5.16,0,0,1,65.22,106.12Z"/><path id="Path_5171" data-name="Path 5171" class="cls-12" d="M48.06,87.46l5.24,9H42.82Z"/></g></svg>