<svg id="Layer_1" data-name="Layer 1" xmlns="http://www.w3.org/2000/svg" xmlns:xlink="http://www.w3.org/1999/xlink" width="202" height="134" viewBox="0 0 202 134"><defs><style>.cls-1{fill:url(#linear-gradient);}.cls-2{fill:url(#linear-gradient-2);}.cls-3{fill:url(#linear-gradient-3);}.cls-4{fill:url(#linear-gradient-4);}.cls-5{fill:url(#linear-gradient-5);}.cls-6{fill:url(#linear-gradient-6);}.cls-7{fill:#ddd;}.cls-8{fill:url(#linear-gradient-7);}.cls-9{fill:#e4e6e6;}.cls-10,.cls-11,.cls-15{fill:none;stroke-linecap:round;stroke-miterlimit:10;stroke-width:2px;}.cls-10{stroke:url(#linear-gradient-8);}.cls-11{stroke:url(#linear-gradient-9);}.cls-12{fill:url(#linear-gradient-10);}.cls-13{fill:#fff;}.cls-14{fill:#344e5c;}.cls-15{stroke:#fff;opacity:0.8;}.cls-16{fill:#efc41c;}.cls-17{fill:url(#linear-gradient-11);}.cls-18{fill:url(#linear-gradient-12);}</style><linearGradient id="linear-gradient" x1="178.19" y1="12.79" x2="203.75" y2="12.79" gradientTransform="translate(-71.68 144.85) rotate(-12.91)" gradientUnits="userSpaceOnUse"><stop offset="0" stop-color="#0570b7"/><stop offset="1" stop-color="#5fb9d3"/></linearGradient><linearGradient id="linear-gradient-2" x1="17.17" y1="48.98" x2="47.29" y2="48.98" gradientUnits="userSpaceOnUse"><stop offset="0" stop-color="#fde97e"/><stop offset="1" stop-color="#fde97e"/></linearGradient><linearGradient id="linear-gradient-3" x1="19.7" y1="53.08" x2="52.76" y2="53.08" gradientUnits="userSpaceOnUse"><stop offset="0" stop-color="#faa95f"/><stop offset="1" stop-color="#fdcb9d"/></linearGradient><linearGradient id="linear-gradient-4" x1="17.17" y1="60.24" x2="17.17" y2="60.24" xlink:href="#linear-gradient-3"/><linearGradient id="linear-gradient-5" x1="14.91" y1="52.63" x2="56.39" y2="52.63" xlink:href="#linear-gradient-2"/><linearGradient id="linear-gradient-6" x1="98.83" y1="109.94" x2="145.26" y2="109.94" gradientTransform="translate(39.57 -64.88) rotate(6.26)" gradientUnits="userSpaceOnUse"><stop offset="0" stop-color="#0570b7"/><stop offset="1" stop-color="#78479c"/></linearGradient><linearGradient id="linear-gradient-7" x1="90.8" y1="88.89" x2="158.38" y2="88.89" xlink:href="#linear-gradient-6"/><linearGradient id="linear-gradient-8" x1="109.04" y1="80.11" x2="115.27" y2="80.11" gradientTransform="translate(39.57 -64.88) rotate(6.26)" gradientUnits="userSpaceOnUse"><stop offset="0" stop-color="#99ca3c"/><stop offset="1" stop-color="#bbd86f"/></linearGradient><linearGradient id="linear-gradient-9" x1="134.99" y1="83.62" x2="143.86" y2="83.62" xlink:href="#linear-gradient-8"/><linearGradient id="linear-gradient-10" x1="111.38" y1="81.64" x2="138.58" y2="81.64" xlink:href="#linear-gradient-8"/><linearGradient id="linear-gradient-11" x1="75.75" y1="26.72" x2="121.51" y2="81.26" gradientTransform="matrix(1.11, -0.16, 0.17, 1.16, -17.81, 11.1)" gradientUnits="userSpaceOnUse"><stop offset="0.11" stop-color="#efc41c" stop-opacity="0"/><stop offset="0.84" stop-color="#faea7f"/><stop offset="1" stop-color="#fff" stop-opacity="0.9"/></linearGradient><linearGradient id="linear-gradient-12" x1="117.72" y1="75.32" x2="124.66" y2="75.32" gradientTransform="matrix(1.11, 0.17, -0.16, 1.16, 4.63, -25.15)" xlink:href="#linear-gradient-2"/></defs><path class="cls-1" d="M129.78,111.79c.07.29.13.58.17.87a12.78,12.78,0,0,1-24.85,5.7c-.09-.28-.16-.56-.23-.85a12.78,12.78,0,1,1,24.91-5.72Z"/><path class="cls-2" d="M17.17,60.24l3.44,3.92a19.87,19.87,0,0,1,1.3-2.81L44.68,38.72a18.83,18.83,0,0,1,2.61-1.17L44,33.8a41.79,41.79,0,0,0-5.08,2.81L27.45,44.69,19.7,55.79a43.08,43.08,0,0,0-2.53,4.45Z"/><path class="cls-3" d="M52.76,53.08a16.73,16.73,0,0,0-5.91-12.79h0a16.55,16.55,0,0,0-4.64-2.78h0a16.3,16.3,0,0,0-6-1.12h0A16.61,16.61,0,0,0,19.7,53.08v.12h0a16.6,16.6,0,0,0,1.16,6h0a16.65,16.65,0,0,0,2.79,4.68h0a16.41,16.41,0,0,0,12.58,5.86c.31,0,.61,0,.92,0h0A16.63,16.63,0,0,0,52.73,54.05h0C52.75,53.73,52.76,53.41,52.76,53.08Z"/><polygon class="cls-4" points="17.17 60.24 17.17 60.24 17.17 60.24 17.17 60.24 17.17 60.24"/><path class="cls-5" d="M55,33.25C53,31.2,48.91,31.56,44,33.8l3.29,3.75h0c1.73-.6,3-.62,3.72.07,2.21,2.2-2.81,10.79-11.19,19.18S22.84,70.2,20.64,68c-.7-.71-.67-2,0-3.84l-3.44-3.92c-2.55,5.24-3.06,9.62-.91,11.78,4.06,4.06,16-1.33,26.74-12S59.09,37.3,55,33.25Z"/><path class="cls-6" d="M149.51,54.63a6.37,6.37,0,1,0,4.7,7.69A6.4,6.4,0,0,0,149.51,54.63ZM167,54.49a6.37,6.37,0,1,0,4.69,7.69A6.39,6.39,0,0,0,167,54.49Zm-33-8a6.37,6.37,0,1,0,4.69,7.68A6.38,6.38,0,0,0,134,46.52Z"/><path class="cls-7" d="M135.34,30.13c12-3.92,29,.18,37.92,9.16s6.38,19.45-5.64,23.32-29-.18-37.92-9.16S123.31,34.05,135.34,30.13Z"/><path class="cls-8" d="M133.73,17.57c14.74-4.52,35.64.53,46.69,11.28s8.05,23.18-6.69,27.7S138.09,56,127,45.27,119,22.14,133.73,17.57Z"/><path class="cls-9" d="M161,7.17a21.23,21.23,0,0,1,15.65,25.62c-2.76,11.4-13.22,14.28-24.63,11.52s-19.4-10.09-16.64-21.49A21.22,21.22,0,0,1,161,7.17Z"/><path class="cls-10" d="M143.77,33.19s-5.5-.47-2.62-12.4"/><path class="cls-11" d="M165.05,38.33s5.11,2.1,8-9.83"/><path class="cls-12" d="M152,44.31a27.54,27.54,0,0,0,13,.36l3.35-13.87a12.74,12.74,0,1,0-24.76-6l-3.35,13.88A27.61,27.61,0,0,0,152,44.31Z"/><path class="cls-13" d="M155,32a8.3,8.3,0,0,1,4.64,2.73,6.24,6.24,0,0,0,2.05-3.33,6.37,6.37,0,1,0-12.07.91A8.3,8.3,0,0,1,155,32Z"/><path class="cls-14" d="M152.89,31.68A9.78,9.78,0,0,1,155,32a9.93,9.93,0,0,1,2,.7,3.14,3.14,0,0,0,1.61-2,3.18,3.18,0,1,0-5.7,1.06Z"/><path class="cls-15" d="M162,11.76s11.29,3.43,10.86,20.11"/><path class="cls-16" d="M77.93,11H76.36V9.44a1.57,1.57,0,1,0-3.14,0V11H71.65a1.57,1.57,0,0,0,0,3.14h1.57v1.57a1.57,1.57,0,1,0,3.14,0V14.15h1.57a1.57,1.57,0,0,0,0-3.14Z"/><path class="cls-16" d="M150.38,89.81h-1v-1a1,1,0,1,0-2.09,0v1h-1.05a1.05,1.05,0,0,0,0,2.1h1.05v1a1,1,0,1,0,2.09,0v-1h1a1.05,1.05,0,0,0,0-2.1Z"/><path class="cls-16" d="M84.79,75H82.5V72.66a2.3,2.3,0,0,0-4.59,0V75h-2.3a2.3,2.3,0,0,0,0,4.59h2.3v2.29a2.3,2.3,0,1,0,4.59,0V79.54h2.29a2.3,2.3,0,0,0,0-4.59Z"/><path class="cls-16" d="M53.52,103.88H52v-1.52a1.53,1.53,0,1,0-3.06,0v1.52H47.41a1.53,1.53,0,1,0,0,3.06h1.53v1.53a1.53,1.53,0,0,0,3.06,0v-1.53h1.52a1.53,1.53,0,0,0,0-3.06Z"/><path class="cls-17" d="M70,31.15c-.55.64,38.72,24.45,60.21,47.84,5.14,4.39-1.15,12.89-6.94,5.8C115,74.59,70,31.15,70,31.15Z"/><ellipse class="cls-18" cx="127.56" cy="82.5" rx="3.9" ry="4.06" transform="translate(-10.48 19.07) rotate(-8.21)"/></svg>