<svg id="Layer_1" data-name="Layer 1" xmlns="http://www.w3.org/2000/svg" xmlns:xlink="http://www.w3.org/1999/xlink" viewBox="0 0 32 32"><defs><style>.cls-1{fill:url(#linear-gradient);}.cls-2{fill:url(#linear-gradient-2);}.cls-3{fill:url(#linear-gradient-3);}.cls-4{fill:#643a8c;}</style><linearGradient id="linear-gradient" x1="-531.45" y1="-12.02" x2="-531.52" y2="-12.06" gradientTransform="matrix(216.84, 0, 0, -276.25, 115264.09, -3317.17)" gradientUnits="userSpaceOnUse"><stop offset="0" stop-color="#78479c"/><stop offset="1" stop-color="#0570b7"/></linearGradient><linearGradient id="linear-gradient-2" x1="-531.38" y1="-7.18" x2="-531.36" y2="-7.26" gradientTransform="matrix(-108.42, 187.79, 239.14, 138.07, -55863.25, 100801.22)" xlink:href="#linear-gradient"/><linearGradient id="linear-gradient-3" x1="-536.72" y1="-9.51" x2="-536.79" y2="-9.56" gradientTransform="matrix(-108.42, -187.79, -239.14, 138.07, -60466.96, -99457.93)" gradientUnits="userSpaceOnUse"><stop offset="0" stop-color="#0570b7"/><stop offset="1" stop-color="#78479c"/></linearGradient></defs><g id="Symbol"><path id="Path_5168" data-name="Path 5168" class="cls-1" d="M5,22.8A2.93,2.93,0,0,1,8,19.87h.28l3.09-5.37L11,14.19A7.34,7.34,0,0,1,13.31,2.24a7.34,7.34,0,0,1,8,1.57A7.38,7.38,0,0,1,23.51,9a7.56,7.56,0,0,1-.34,2.22l.74.24-3.1,2.08L19.53,10l1,.34a4.61,4.61,0,0,0-1.14-4.64,4.84,4.84,0,0,0-1.46-1,4.63,4.63,0,0,0-1.8-.36,4.54,4.54,0,0,0-1.79.36,4.62,4.62,0,0,0-1.65,7.33h0l0,0h.05l.1.09a4.5,4.5,0,0,0,1.46,1h0a2.92,2.92,0,0,0,.38.14h.29l-4.56,7.89a2.86,2.86,0,0,1,.38,1.43A2.94,2.94,0,0,1,8,25.74H8A2.94,2.94,0,0,1,5,22.8ZM13.19,9A2.94,2.94,0,0,1,16.13,6h0A2.94,2.94,0,1,1,13.19,9Z"/><path id="Path_5169" data-name="Path 5169" class="cls-2" d="M17.61,6.44a2.94,2.94,0,0,1,1.07,4,1.82,1.82,0,0,1-.15.23l3.1,5.37.45-.14a7.34,7.34,0,1,1-3.52,12l-.58.53-.25-3.73,3.67.64-.81.74A4.61,4.61,0,1,0,23,18.49h-.12l-.13,0a4.43,4.43,0,0,0-1.59.77h0l-.31.26h-.19l0,0L16.1,11.92a2.94,2.94,0,1,1,.08-5.87A3,3,0,0,1,17.61,6.44Zm7.89,14a2.94,2.94,0,1,1-4,1.08A2.94,2.94,0,0,1,25.5,20.44Z"/><path id="Path_5170" data-name="Path 5170" class="cls-3" d="M25.55,25.53a2.94,2.94,0,0,1-4-1.07c-.05-.08-.09-.16-.13-.24H15.22c0,.15-.07.3-.11.45a7.33,7.33,0,1,1-8.66-9.06l-.17-.77,3.35,1.64L7.24,19.35,7,18.27a4.62,4.62,0,1,0,5.39,5.95h0l0,0v0h0v0h0v0h0c0-.05,0-.09,0-.13a4.6,4.6,0,0,0,.12-1.77h0c0-.13,0-.26-.07-.39h0v0h0v0h0v0h0v0h0v0h0v0h0v0h9.11a2.93,2.93,0,1,1,4,4Z"/><path id="Path_5171" data-name="Path 5171" class="cls-4" d="M15.93,15.08l2.94,5H13Z"/></g></svg>