<svg id="Layer_1" data-name="Layer 1" xmlns="http://www.w3.org/2000/svg" xmlns:xlink="http://www.w3.org/1999/xlink" viewBox="0 0 156 32"><defs><style>.cls-1{fill:none;}.cls-2{fill:url(#linear-gradient);}.cls-3{fill:url(#linear-gradient-2);}.cls-4{clip-path:url(#clip-path);}.cls-5,.cls-6{fill:#fff;isolation:isolate;}.cls-5{opacity:0.05;}.cls-6{opacity:0.04;}.cls-7{fill:url(#linear-gradient-3);}.cls-8{fill:url(#linear-gradient-4);}.cls-9{fill:url(#linear-gradient-5);}.cls-10{fill:#643a8c;}</style><linearGradient id="linear-gradient" x1="-357.58" y1="-12.08" x2="-357.62" y2="-12.12" gradientTransform="matrix(548.53, 0, 0, -254.48, 196223.96, -3066.21)" gradientUnits="userSpaceOnUse"><stop offset="0" stop-color="#dd1f26"/><stop offset="1" stop-color="#52419a"/></linearGradient><linearGradient id="linear-gradient-2" x1="-357.48" y1="-12.08" x2="-357.51" y2="-12.12" xlink:href="#linear-gradient"/><clipPath id="clip-path"><path class="cls-1" d="M34.85,9.21h5.48l2.11,8.19,2.1-8.19H50V22.68H46.6V12.41L44,22.68H40.89L38.26,12.41V22.68H34.85ZM60.68,20.45H55.94l-.66,2.23H51L56.09,9.21h4.54l5.06,13.47H61.34Zm-.88-2.91L58.31,12.7l-1.47,4.84Zm7-8.33h3.88l5.07,7.45V9.21h3.93V22.68H75.74l-5-7.4v7.4H66.79Zm14,0h4.62l2.72,4.55,2.72-4.55h4.59L90.22,17v5.64H86.05V17Z"/></clipPath><linearGradient id="linear-gradient-3" x1="-356.26" y1="-12.02" x2="-356.33" y2="-12.06" gradientTransform="matrix(216.84, 0, 0, -276.25, 77276.25, -3317.17)" gradientUnits="userSpaceOnUse"><stop offset="0" stop-color="#78479c"/><stop offset="1" stop-color="#0570b7"/></linearGradient><linearGradient id="linear-gradient-4" x1="-354.98" y1="-7.73" x2="-354.96" y2="-7.81" gradientTransform="matrix(-108.42, 187.79, 239.14, 138.07, -36605.33, 67750.37)" xlink:href="#linear-gradient-3"/><linearGradient id="linear-gradient-5" x1="-360.32" y1="-8.96" x2="-360.39" y2="-9.01" gradientTransform="matrix(-108.42, -187.79, -239.14, 138.07, -41209.04, -66407.08)" gradientUnits="userSpaceOnUse"><stop offset="0" stop-color="#0570b7"/><stop offset="1" stop-color="#78479c"/></linearGradient></defs><g id="Logo"><g id="Text"><path id="Text-2" data-name="Text" class="cls-2" d="M86,22.73V17.09L80.8,9.27h4.62l2.72,4.54,2.72-4.54h4.59l-5.24,7.82v5.64Zm-10.31,0-5-7.39v7.39H66.78V9.27h3.88l5.07,7.45V9.27h3.93V22.73Zm-14.4,0-.67-2.22H55.93l-.66,2.22H51L56.08,9.27h4.54l5.06,13.46Zm-4.5-5.13h3L58.3,12.76ZM46.59,22.73V12.46L44,22.73H40.88L38.25,12.46V22.73H34.84V9.27h5.48l2.11,8.19,2.1-8.19H50V22.73Z"/><path id="Text-3" data-name="Text" class="cls-3" d="M97.22,21.64a5.18,5.18,0,0,1-1.49-3.36l4-.25a3,3,0,0,0,.52,1.47,2.22,2.22,0,0,0,1.84.82,2,2,0,0,0,1.37-.42,1.23,1.23,0,0,0,.48-1,1.24,1.24,0,0,0-.46-.94,5.4,5.4,0,0,0-2.13-.78,9.08,9.08,0,0,1-3.9-1.63A3.31,3.31,0,0,1,96.23,13a3.51,3.51,0,0,1,.6-2,4,4,0,0,1,1.81-1.45A8.34,8.34,0,0,1,102,9a6.75,6.75,0,0,1,3.93,1,4.15,4.15,0,0,1,1.61,3.05l-3.92.23a2,2,0,0,0-.66-1.32,2.07,2.07,0,0,0-1.38-.41,1.69,1.69,0,0,0-1.09.3,1,1,0,0,0-.37.75.78.78,0,0,0,.3.58,3.48,3.48,0,0,0,1.4.5,17,17,0,0,1,3.91,1.19,4.05,4.05,0,0,1,1.72,1.49,3.76,3.76,0,0,1,.53,2,4.24,4.24,0,0,1-.71,2.39,4.47,4.47,0,0,1-2,1.66A8.16,8.16,0,0,1,102,23C99.69,23,98.11,22.52,97.22,21.64Zm45.45,1.09V9.27h6.92A4.77,4.77,0,0,1,153,10.34a4,4,0,0,1,1.12,3.06,4.19,4.19,0,0,1-1.22,3.19,5.36,5.36,0,0,1-3.75,1.15h-2.28v5ZM146.85,15h1a2.59,2.59,0,0,0,1.69-.42,1.34,1.34,0,0,0,.49-1.07,1.46,1.46,0,0,0-.42-1.07A2.16,2.16,0,0,0,148,12h-1.19Zm-9.58,7.72-.66-2.22h-4.74l-.65,2.22H127L132,9.27h4.53l5.07,13.46Zm-4.5-5.13h3l-1.49-4.84Zm-12.6,5.13-2.36-8.48-2.35,8.48h-4.08l-3-13.46h4l1.42,7.52,2.08-7.52h3.94l2.08,7.52,1.43-7.52h3.93l-3,13.46Z"/><g class="cls-4"><g id="MANY_Shade" data-name="MANY Shade"><rect id="Rectangle_4460-2" data-name="Rectangle 4460-2" class="cls-5" x="14.21" y="-0.6" width="31.39" height="15.99" transform="translate(2.73 21.91) rotate(-42)"/><rect id="Rectangle_4461-2" data-name="Rectangle 4461-2" class="cls-5" x="20.09" y="2.11" width="31.39" height="15.99" transform="translate(2.43 26.54) rotate(-42)"/><path id="Path_5164-2" data-name="Path 5164-2" class="cls-6" d="M62.32-.85l5.5,5.5L50.37,21.4l1.74-8.24Z"/><path id="Path_5165-2" data-name="Path 5165-2" class="cls-6" d="M82.25-.85l5.5,5.5-21,19.1L64.53,7.57Z"/><path id="Path_5166-2" data-name="Path 5166-2" class="cls-6" d="M66.5,15.1h0a11.08,11.08,0,0,1,1.89-6.53,11.36,11.36,0,0,1,1.72-2A12.64,12.64,0,0,1,72.27,5a14.24,14.24,0,0,1,2.5-1.17,15.53,15.53,0,0,1,2.78-.71,17.32,17.32,0,0,1,3-.22,18.8,18.8,0,0,1,3.08.31,19.35,19.35,0,0,1,6.06,2.2,18.57,18.57,0,0,1,2.55,1.75c.78.64-1.8,1.93-2.55,4.63-.72.41-1.18,2.56-1.55,2.3a16.35,16.35,0,0,0-4.21-2.3,19,19,0,0,0-5-1.1,17,17,0,0,0-4.78.28,14.94,14.94,0,0,0-4.24,1.52A12.83,12.83,0,0,0,66.5,15.1Z"/></g></g></g><g id="Symbol"><path id="Path_5168" data-name="Path 5168" class="cls-7" d="M6.22,22.8a2.94,2.94,0,0,1,2.94-2.93h.27l3.1-5.37c-.12-.1-.23-.21-.34-.32a7.34,7.34,0,0,1,8-11.95,7.38,7.38,0,0,1,3.91,3.91A7.15,7.15,0,0,1,24.71,9a7,7,0,0,1-.34,2.22l.75.24L22,13.54,20.73,10l1.05.34a4.63,4.63,0,0,0-.15-3.17,4.63,4.63,0,0,0-2.46-2.46,4.66,4.66,0,0,0-3.59,0,4.55,4.55,0,0,0-1.46,1,4.43,4.43,0,0,0-1,1.47A4.63,4.63,0,0,0,12.76,9a4.46,4.46,0,0,0,.37,1.8,4.41,4.41,0,0,0,.81,1.28h0l0,0H14l.09.09a4.43,4.43,0,0,0,1.47,1h0a2.46,2.46,0,0,0,.38.14h.28l-4.55,7.89a2.75,2.75,0,0,1,.37,1.43,2.94,2.94,0,0,1-2.93,2.94h0A2.94,2.94,0,0,1,6.22,22.8ZM14.4,9A2.93,2.93,0,0,1,17.34,6h0A2.94,2.94,0,1,1,14.4,9Z"/><path id="Path_5169" data-name="Path 5169" class="cls-8" d="M18.81,6.44a2.94,2.94,0,0,1,1.08,4l-.15.23,3.1,5.37.45-.14a7.34,7.34,0,1,1-3.52,12l-.59.53-.25-3.73,3.68.64-.82.74a4.62,4.62,0,1,0,2.45-7.64h-.12l-.13,0a4.6,4.6,0,0,0-1.59.77h0a3.88,3.88,0,0,0-.31.26h-.2v0l-4.55-7.89a2.94,2.94,0,1,1,1.5-5.48Zm7.9,14a2.94,2.94,0,1,1-4,1.08A2.94,2.94,0,0,1,26.71,20.44Z"/><path id="Path_5170" data-name="Path 5170" class="cls-9" d="M26.75,25.53a2.93,2.93,0,0,1-4-1.07c-.05-.08-.09-.16-.13-.24H16.43c0,.15-.07.3-.11.45a7.34,7.34,0,1,1-8.67-9.06l-.16-.77,3.35,1.64L8.45,19.35l-.23-1.08a4.62,4.62,0,1,0,5.39,5.95h0v-.06h0v0h0v0h0a.5.5,0,0,1,0-.13,4.81,4.81,0,0,0,.12-1.77h0a2.66,2.66,0,0,0-.07-.39h0v0h0v0h0v0h0v0h0v0h0v0h0v0h9.1a2.94,2.94,0,1,1,4,4Z"/><path id="Path_5171" data-name="Path 5171" class="cls-10" d="M17.14,15.08l2.93,5H14.2Z"/></g></g></svg>