<svg version="1.1" id="Layer_1" xmlns="http://www.w3.org/2000/svg" xmlns:xlink="http://www.w3.org/1999/xlink" x="0px" y="0px"
	 viewBox="0 0 96 96" style="enable-background:new 0 0 96 96;" xml:space="preserve">
<style type="text/css">
	.st0{fill:#FFFFFF;}
	.st1{fill:url(#SVGID_1_);}
	.st2{fill:url(#SVGID_2_);}
	.st3{fill:url(#SVGID_3_);}
	.st4{fill:#63398B;}
</style>
<circle class="st0" cx="48" cy="48" r="47"/>
<g>
	
		<linearGradient id="SVGID_1_" gradientUnits="userSpaceOnUse" x1="-949.6182" y1="52.4902" x2="-951.4239" y2="53.7656" gradientTransform="matrix(19.3086 0 0 24.8125 18402.4473 -1287.2928)">
		<stop  offset="0" style="stop-color:#880BD1"/>
		<stop  offset="1" style="stop-color:#006FB7"/>
	</linearGradient>
	<path class="st1" d="M22.9,63.2c0-3.8,3-6.8,6.7-6.8c0.1,0,0.4,0,0.6,0L37.3,44c-0.2-0.2-0.5-0.5-0.8-0.7c-1.5-1.5-2.7-3.4-3.6-5.4
		c-0.9-2.1-1.3-4.4-1.3-6.6c0-2.3,0.4-4.5,1.3-6.6c0.8-2,2.1-3.8,3.6-5.4c1.5-1.5,3.4-2.7,5.4-3.6c2.1-0.9,4.3-1.3,6.6-1.3
		s4.4,0.4,6.6,1.3c2,0.8,3.8,2.1,5.4,3.6c1.5,1.5,2.7,3.4,3.6,5.4c0.9,2.1,1.3,4.4,1.3,6.6c0,1.8-0.2,3.5-0.8,5.1l1.7,0.5l-7.2,4.9
		l-3-8l2.4,0.8c0.3-1,0.5-2.1,0.5-3.2c0-1.5-0.3-2.8-0.8-4.1c-0.5-1.3-1.3-2.4-2.3-3.4s-2.1-1.8-3.4-2.3c-1.3-0.5-2.7-0.8-4.1-0.8
		c-1.3,0-2.8,0.3-4.1,0.8s-2.4,1.3-3.4,2.3s-1.8,2.1-2.3,3.4C38.3,28.6,38,30,38,31.4s0.3,2.8,0.8,4.1c0.5,1.1,1.1,2.1,1.8,3
		l0.1,0.1v0.1l0,0l0,0l0,0l0,0l0,0c0.1,0.1,0.1,0.1,0.2,0.2c1,1,2.1,1.8,3.4,2.3l0,0l0,0l0,0l0,0c0.3,0.1,0.5,0.2,0.8,0.3h0.1l0,0
		h0.1l0,0h0.1l0,0h0.1l0,0l0,0l0,0l0,0h0.1l0,0h0.1l0,0h0.1l0,0h0.1l0,0H46h0.1L35.3,59.7c0.5,1,0.8,2.1,0.8,3.3
		c0,3.8-3,6.8-6.7,6.8S22.9,66.9,22.9,63.2z M41.6,31.3c0-3.8,3-6.8,6.7-6.8s6.7,3,6.7,6.8s-3,6.8-6.7,6.8S41.6,35,41.6,31.3z"/>
	
		<linearGradient id="SVGID_2_" gradientUnits="userSpaceOnUse" x1="-978.5554" y1="-68.1381" x2="-978.137" y2="-66.0238" gradientTransform="matrix(-15.0495 26.2946 -24.0612 -14.0133 -16276.4307 24839.2598)">
		<stop  offset="0" style="stop-color:#880BD1"/>
		<stop  offset="1" style="stop-color:#006FB7"/>
	</linearGradient>
	<path class="st2" d="M51.7,25.4c3.2,1.8,4.4,6,2.4,9.3c-0.1,0.1-0.2,0.4-0.4,0.5l7.1,12.4c0.4-0.1,0.7-0.2,1-0.3
		c8-2.1,16.3,1.8,19.6,9.4s0.8,16.5-6.1,21c-6.9,4.6-16,3.4-21.6-2.7l-1.3,1.2l-0.6-8.6l8.4,1.5l-1.8,1.7c3.4,3.8,9.1,4.6,13.4,1.8
		c4.4-2.8,6.1-8.1,4.2-12.8s-7-7.5-12-6.4l0,0l0,0l0,0h-0.1l0,0h-0.1l0,0c-0.1,0-0.1,0.1-0.3,0.1c-1.3,0.4-2.5,1-3.6,1.8l0,0
		l-0.1,0.1l0,0c-0.2,0.1-0.5,0.4-0.7,0.6v0.1l0,0V56L59,56.1l0,0l0,0l0,0l0,0l0,0l0,0l-0.1,0.1l0,0l0,0l0,0l-0.1,0.1l-0.1,0.1
		L48.4,38c-2.8-0.1-5.3-1.8-6.3-4.5S42,27.8,44.2,26C46.2,24.3,49.3,24,51.7,25.4z M69.8,57.8c3.2,1.8,4.4,6,2.4,9.3
		c-1.8,3.2-6,4.4-9.1,2.4c-3.2-1.8-4.4-6-2.4-9.3S66.5,55.9,69.8,57.8z"/>
	
		<linearGradient id="SVGID_3_" gradientUnits="userSpaceOnUse" x1="-1071.0717" y1="-3.911" x2="-1072.8773" y2="-2.6356" gradientTransform="matrix(-13.4473 -23.4952 26.8672 -15.6475 -14298.1777 -25176.2402)">
		<stop  offset="0" style="stop-color:#006FB7"/>
		<stop  offset="1" style="stop-color:#880BD1"/>
	</linearGradient>
	<path class="st3" d="M69.9,69.6c-3.2,1.8-7.3,0.8-9.2-2.4c-0.1-0.1-0.1-0.4-0.3-0.5H46.2c-0.1,0.3-0.2,0.6-0.2,1
		c-2.1,8-9.7,13.3-17.9,12.5c-8.2-1-14.5-7.7-15-16c-0.4-8.3,5.2-15.8,13.3-17.6L26,44.8l7.7,3.8l-5.5,6.6l-0.5-2.4
		c-5.1,1.1-8.6,5.6-8.3,10.8c0.1,5.2,4.1,9.4,9.1,10.1c5,0.7,9.9-2.4,11.5-7.2c0,0,0-0.1,0.1-0.1v-0.1l0,0v-0.1l0,0v-0.1l0,0
		c0-0.1,0.1-0.1,0.1-0.3c0.4-1.3,0.4-2.7,0.3-4.1l0,0l0,0v-0.1l0,0c-0.1-0.3-0.1-0.6-0.1-0.9v-0.1l0,0l0,0l0,0v-0.1l0,0v-0.1l0,0
		v-0.1l0,0l0,0v-0.1l0,0l0,0l0,0v-0.1l0,0V60l0,0v-0.1l0,0v-0.1v-0.1h20.8c1.5-2.4,4.2-3.8,7-3.2c2.7,0.5,4.9,2.7,5.4,5.5
		C73.6,65.3,72.4,68.1,69.9,69.6z"/>
	<path class="st4" d="M47.9,45.4L54.7,57H41.2L47.9,45.4z"/>
</g>
</svg>
