
<svg version="1.1" id="Layer_1" xmlns="http://www.w3.org/2000/svg" xmlns:xlink="http://www.w3.org/1999/xlink" x="0px" y="0px"
	 viewBox="0 0 437 112" style="enable-background:new 0 0 437 112;" xml:space="preserve">
<style type="text/css">
	.st0{clip-path:url(#SVGID_2_);}
	.st1{fill:url(#SVGID_3_);}
	.st2{opacity:0.1;fill:#FFFFFF;}
	.st3{opacity:0.5;fill:#D39EFF;}
	.st4{opacity:0.5;fill:#C1B9FF;}
	.st5{fill:url(#SVGID_4_);}
	.st6{clip-path:url(#SVGID_6_);}
	.st7{clip-path:url(#SVGID_8_);}
	.st8{clip-path:url(#SVGID_10_);}
	.st9{clip-path:url(#SVGID_12_);}
	.st10{fill:url(#SVGID_13_);}
	.st11{fill:url(#SVGID_14_);}
	.st12{fill:url(#SVGID_15_);}
	.st13{fill:#63398B;}
</style>
<g>
	<defs>
		<rect id="SVGID_1_" width="437" height="112"/>
	</defs>
	<clipPath id="SVGID_2_">
		<use xlink:href="#SVGID_1_"  style="overflow:visible;"/>
	</clipPath>
	<g class="st0">
		
			<linearGradient id="SVGID_3_" gradientUnits="userSpaceOnUse" x1="218.5" y1="111.8898" x2="218.5" y2="-0.1102" gradientTransform="matrix(1 0 0 -1 0 111.8898)">
			<stop  offset="0" style="stop-color:#DC8CCD"/>
			<stop  offset="0.9987" style="stop-color:#C3C9FF"/>
		</linearGradient>
		<rect class="st1" width="437" height="112"/>
		<circle class="st2" cx="82.5" cy="28" r="43.5"/>
		<circle class="st3" cx="285" cy="26.5" r="37"/>
		<circle class="st4" cx="57" cy="88.5" r="37"/>
		<circle class="st3" cx="380.5" cy="16" r="31.5"/>
		<circle class="st2" cx="346.5" cy="89" r="34.5"/>
	</g>
</g>
<g id="surface1">
	
		<linearGradient id="SVGID_4_" gradientUnits="userSpaceOnUse" x1="-324.431" y1="33.0663" x2="-325.5684" y2="34.4561" gradientTransform="matrix(48.8438 0 0 22.8594 16152.2852 -724.6956)">
		<stop  offset="0" style="stop-color:#DE091A"/>
		<stop  offset="1" style="stop-color:#4E2EAE"/>
	</linearGradient>
	<path class="st5" d="M205.2,93c-2-2-3.2-4.7-3.4-7.8l9.2-0.6c0.2,1.5,0.6,2.6,1.2,3.4c1,1.3,2.4,1.9,4.2,1.9c1.4,0,2.5-0.3,3.2-1
		c0.7-0.6,1.1-1.4,1.1-2.3c0-0.8-0.4-1.6-1.1-2.2c-0.7-0.7-2.4-1.2-4.9-1.8c-4.2-1-7.2-2.2-9-3.8c-1.8-1.5-2.8-3.7-2.7-6
		c0-1.6,0.5-3.2,1.4-4.6c0.9-1.4,2.3-2.5,4.2-3.4c1.9-0.8,4.4-1.2,7.6-1.2c4,0,6.9,0.7,9.1,2.2c2,1.5,3.4,3.8,3.8,7.1l-9.1,0.6
		c-0.2-1.4-0.7-2.5-1.5-3.1c-0.7-0.7-1.8-1-3.2-1c-1.1,0-2,0.2-2.5,0.7c-0.6,0.4-0.8,1.1-0.8,1.7c0,0.6,0.2,1.1,0.7,1.4
		c0.5,0.4,1.6,0.8,3.2,1.1c4.2,0.9,7.2,1.8,9,2.8c1.8,0.9,3.1,2.1,3.9,3.4c0.8,1.4,1.2,3,1.2,4.7c0,2-0.6,3.9-1.6,5.6
		c-1.1,1.7-2.7,3-4.6,3.8c-2,0.9-4.5,1.3-7.4,1.3C210.9,96,207.3,95,205.2,93z M309.9,95.5V64.2h15.9c3.4,0,6,0.8,7.8,2.5
		c1.7,1.6,2.6,4,2.6,7.1c0,3.2-1,5.6-2.9,7.4c-1.9,1.8-4.7,2.7-8.7,2.7h-5.2v11.6L309.9,95.5L309.9,95.5z M319.6,77.5h2.4
		c1.9,0,3.2-0.3,3.9-1c0.7-0.6,1.1-1.6,1.1-2.5s-0.3-1.8-1-2.5c-0.7-0.7-1.9-1.1-3.7-1.1h-2.7L319.6,77.5L319.6,77.5z M297.4,95.5
		l-1.6-5.1H285l-1.5,5.1h-9.8l11.7-31.3h10.5l11.7,31.3H297.4z M287.1,83.6h6.9l-3.4-11.3L287.1,83.6z M258.1,95.5l-5.5-19.7
		l-5.4,19.7h-9.4l-6.9-31.3h9.1l3.3,17.5l4.7-17.5h9.1l4.8,17.5l3.3-17.5h9.1l-6.9,31.3H258.1z M305.6,57.7V44.7l-12.1-18.2h10.6
		l6.3,10.5l6.3-10.5h10.5l-12.1,18.2v13.1H305.6z M281.9,57.7l-11.6-17.2v17.2h-9V26.5h8.9l11.7,17.2V26.5h9v31.3L281.9,57.7
		L281.9,57.7z M248.7,57.7l-1.6-5.1h-10.9l-1.5,5.1h-9.8l11.7-31.3h10.5l11.7,31.3H248.7z M238.3,45.8h6.9l-3.4-11.3L238.3,45.8z
		 M214.7,57.7V33.9l-6,23.9h-7.1l-6-23.9v23.9h-7.8V26.5h12.6l4.8,19l4.8-19h12.6v31.3L214.7,57.7L214.7,57.7z"/>
	<g>
		<g>
			<defs>
				<rect id="SVGID_5_" x="200" y="62" width="136.9" height="36.5"/>
			</defs>
			<clipPath id="SVGID_6_">
				<use xlink:href="#SVGID_5_"  style="overflow:visible;"/>
			</clipPath>
			<g class="st6">
				<g>
					<g>
						<defs>
							<path id="SVGID_7_" d="M201.8,85l9.2-0.6c0.2,1.5,0.6,2.6,1.2,3.4c1,1.3,2.4,1.9,4.2,1.9c1.4,0,2.5-0.3,3.2-1
								c0.7-0.6,1.1-1.4,1.1-2.3c0-0.8-0.4-1.6-1.1-2.2c-0.7-0.7-2.4-1.2-4.9-1.8c-4.2-1-7.2-2.2-9-3.8c-1.8-1.5-2.8-3.7-2.7-6
								c0-1.6,0.5-3.2,1.4-4.6c0.9-1.4,2.3-2.5,4.2-3.4c1.9-0.8,4.4-1.2,7.6-1.2c4,0,6.9,0.7,9.1,2.2c2,1.5,3.4,3.8,3.8,7.1
								l-9.1,0.6c-0.2-1.4-0.7-2.5-1.5-3.1c-0.7-0.7-1.8-1-3.2-1c-1.1,0-2,0.2-2.5,0.7c-0.6,0.4-0.8,1.1-0.8,1.7
								c0,0.6,0.2,1.1,0.7,1.3c0.5,0.4,1.6,0.8,3.2,1.1c4.2,0.9,7.2,1.9,9,2.8c1.8,0.9,3.1,2.1,3.9,3.4c0.8,1.4,1.2,3,1.2,4.7
								c0,2-0.6,3.9-1.6,5.6c-1.1,1.7-2.7,3-4.6,3.8c-2,0.9-4.5,1.3-7.4,1.3c-5.3,0-8.9-1.1-10.9-3.1C203.2,90.8,202,88.1,201.8,85z
								 M231,64h9.1l3.3,17.5l4.7-17.5h9.1l4.8,17.5l3.3-17.5h9.1l-6.9,31.3H258l-5.4-19.7l-5.4,19.7h-9.4L231,64z M295.9,90.2H285
								l-1.5,5.1h-9.8L285.4,64h10.5l11.7,31.3h-10.1L295.9,90.2z M293.9,83.4l-3.4-11.3L287,83.4H293.9z M309.9,64h15.9
								c3.4,0,6,0.8,7.8,2.5c1.7,1.6,2.6,4,2.6,7.1c0,3.2-1,5.6-2.9,7.4s-4.7,2.7-8.7,2.7h-5.2v11.6h-9.6L309.9,64L309.9,64z
								 M319.6,77.4h2.4c1.9,0,3.2-0.3,3.9-1c0.7-0.6,1.1-1.6,1.1-2.5s-0.3-1.8-1-2.5c-0.7-0.7-1.9-1.1-3.7-1.1h-2.7L319.6,77.4
								L319.6,77.4z"/>
						</defs>
						<clipPath id="SVGID_8_">
							<use xlink:href="#SVGID_7_"  style="overflow:visible;"/>
						</clipPath>
						<g class="st7">
							<g>
								
									<image style="overflow:visible;enable-background:new    ;" width="77" height="30" id="image13" xlink:href="3F7C0FBAAD049118.png"  transform="matrix(3.0756 0 0 3.0756 99.8603 9.8066)">
								</image>
							</g>
						</g>
					</g>
				</g>
			</g>
		</g>
	</g>
	<g>
		<g>
			<defs>
				<rect id="SVGID_9_" x="184.8" y="25.5" width="142.9" height="33.4"/>
			</defs>
			<clipPath id="SVGID_10_">
				<use xlink:href="#SVGID_9_"  style="overflow:visible;"/>
			</clipPath>
			<g class="st8">
				<g>
					<g>
						<defs>
							<path id="SVGID_11_" d="M187.7,26.4h12.6l4.8,19l4.8-19h12.6v31.3h-7.8V33.8l-6,23.9h-7.1l-6-23.9v23.9h-7.8V26.4z
								 M247.2,52.5h-10.9l-1.5,5.1h-9.8l11.7-31.3h10.5l11.7,31.3h-10.1L247.2,52.5z M245.2,45.7l-3.4-11.3l-3.4,11.3H245.2z
								 M261.2,26.4h9l11.7,17.3V26.4h9v31.3h-9l-11.6-17.2v17.2h-9L261.2,26.4L261.2,26.4z M293.6,26.4h10.6l6.3,10.5l6.3-10.5
								h10.5l-12.1,18.2v13.1h-9.6V44.6L293.6,26.4z"/>
						</defs>
						<clipPath id="SVGID_12_">
							<use xlink:href="#SVGID_11_"  style="overflow:visible;"/>
						</clipPath>
						<g class="st9">
							<g>
								
									<image style="overflow:visible;enable-background:new    ;" width="77" height="30" id="image24" xlink:href="3F7C0FBAAD049119.png"  transform="matrix(3.0756 0 0 3.0756 99.8603 9.8066)">
								</image>
							</g>
							<g>
								
									<image style="overflow:visible;enable-background:new    ;" width="77" height="30" id="image35" xlink:href="3F7C0FBAAD04911F.png"  transform="matrix(3.0756 0 0 3.0756 99.8603 9.8066)">
								</image>
							</g>
							<g>
								
									<image style="overflow:visible;enable-background:new    ;" width="77" height="30" id="image46" xlink:href="3F7C0FBAAD04911A.png"  transform="matrix(3.0756 0 0 3.0756 99.8603 9.8066)">
								</image>
							</g>
							<g>
								
									<image style="overflow:visible;enable-background:new    ;" width="77" height="30" id="image57" xlink:href="3F7C0FBAAD04911B.png"  transform="matrix(3.0756 0 0 3.0756 99.8603 9.8066)">
								</image>
							</g>
							<g>
								
									<image style="overflow:visible;enable-background:new    ;" width="77" height="30" id="image68" xlink:href="3F7C0FBAAD049116.png"  transform="matrix(3.0756 0 0 3.0756 99.8603 9.8066)">
								</image>
							</g>
						</g>
					</g>
				</g>
			</g>
		</g>
	</g>
	
		<linearGradient id="SVGID_13_" gradientUnits="userSpaceOnUse" x1="-310.8209" y1="29.8942" x2="-313.2752" y2="31.6277" gradientTransform="matrix(19.3086 0 0 24.8125 6174.6021 -729.7498)">
		<stop  offset="0" style="stop-color:#880BD1"/>
		<stop  offset="1" style="stop-color:#006FB7"/>
	</linearGradient>
	<path class="st10" d="M113.6,77.4c0-5.1,4.1-9.2,9.2-9.2c0.2,0,0.6,0,0.8,0l9.6-16.8c-0.3-0.3-0.7-0.7-1.1-1
		c-2.1-2.1-3.8-4.6-4.9-7.4c-1.2-2.9-1.8-5.9-1.8-8.9c0-3.1,0.6-6.1,1.8-9c1.1-2.7,2.8-5.2,4.9-7.4c2-2.1,4.6-3.8,7.3-4.9
		c2.8-1.2,5.8-1.8,8.9-1.8s6,0.6,8.9,1.8c2.7,1.1,5.1,2.9,7.3,4.9c2.1,2.1,3.8,4.6,4.9,7.4c1.2,2.9,1.8,5.9,1.8,9
		c0,2.4-0.3,4.7-1.1,6.9l2.3,0.7l-9.6,6.5l-4-10.9l3.3,1.1c0.4-1.4,0.7-2.9,0.7-4.3c0-2-0.4-3.8-1.1-5.6c-0.7-1.7-1.8-3.3-3.1-4.6
		c-1.3-1.3-2.9-2.4-4.6-3.1c-1.8-0.7-3.7-1.1-5.6-1.1c-1.9,0-3.8,0.4-5.6,1.1s-3.3,1.8-4.6,3.1c-1.3,1.3-2.4,2.9-3.1,4.6
		c-0.7,1.8-1.1,3.7-1.1,5.6s0.4,3.8,1.1,5.6c0.7,1.5,1.5,2.9,2.5,4l0.1,0.1v0.1l0,0v0.1l0,0V44l0,0c0.1,0.1,0.2,0.2,0.3,0.3
		c1.3,1.3,2.9,2.4,4.6,3.1l0,0l0,0l0,0l0,0c0.4,0.2,0.7,0.3,1.1,0.4h0.1l0,0h0.1l0,0h0.1l0,0h0.1l0,0l0,0l0,0l0,0h0.1l0,0h0.1l0,0
		h0.1l0,0h0.1l0,0h0.1h0.1l-14.1,24.7c0.7,1.4,1.1,2.9,1.1,4.5c0,5.1-4.1,9.2-9.2,9.2S113.6,82.4,113.6,77.4z M139,34
		c0-5.1,4.1-9.2,9.2-9.2s9.2,4.1,9.2,9.2c0,5.1-4.1,9.2-9.2,9.2S139,39,139,34z"/>
	
		<linearGradient id="SVGID_14_" gradientUnits="userSpaceOnUse" x1="-322.5889" y1="-29.7866" x2="-322.0202" y2="-26.9127" gradientTransform="matrix(-15.0495 26.2946 -24.0612 -14.0133 -5366.9531 8142.5869)">
		<stop  offset="0" style="stop-color:#880BD1"/>
		<stop  offset="1" style="stop-color:#006FB7"/>
	</linearGradient>
	<path class="st11" d="M152.8,26c4.3,2.5,5.9,8.2,3.4,12.6c-0.2,0.2-0.3,0.5-0.5,0.7l9.6,16.8c0.5-0.2,0.9-0.3,1.4-0.4
		c10.8-2.9,22.1,2.5,26.7,12.8c4.6,10.3,1.1,22.4-8.3,28.6c-9.3,6.2-21.7,4.7-29.3-3.7l-1.8,1.6l-0.8-11.7l11.4,2l-2.5,2.3
		c4.7,5.1,12.3,6.2,18.2,2.5c5.9-3.8,8.3-11.2,5.6-17.7c-2.6-6.5-9.5-10.1-16.3-8.7h-0.1h-0.1l0,0h-0.1l0,0h-0.1l0,0
		c-0.2,0-0.2,0.1-0.4,0.1c-1.8,0.5-3.4,1.3-4.9,2.5l0,0l-0.1,0.1l0,0c-0.3,0.2-0.7,0.6-1,0.8l-0.1,0.1l0,0v0.1l-0.1,0.1l0,0l0,0l0,0
		l0,0l0,0l0,0l-0.1,0.1l0,0l0,0l0,0l-0.2,0.2l-0.1,0.1l-14.1-24.8c-3.8-0.1-7.2-2.5-8.5-6.1c-1.3-3.6-0.2-7.7,2.8-10.1
		C145.3,24.5,149.5,24.2,152.8,26z M177.3,70c4.4,2.5,5.9,8.2,3.4,12.6c-2.5,4.4-8.1,5.9-12.4,3.4c-4.4-2.5-5.9-8.2-3.4-12.6
		C167.4,68.9,173,67.4,177.3,70z"/>
	
		<linearGradient id="SVGID_15_" gradientUnits="userSpaceOnUse" x1="-368.554" y1="-0.4557" x2="-371.0083" y2="1.2777" gradientTransform="matrix(-13.4473 -23.4952 26.8672 -15.6475 -4861.8286 -8606.6455)">
		<stop  offset="0" style="stop-color:#006FB7"/>
		<stop  offset="1" style="stop-color:#880BD1"/>
	</linearGradient>
	<path class="st12" d="M177.4,85.9c-4.4,2.5-10,1.1-12.5-3.4c-0.2-0.2-0.2-0.5-0.4-0.7h-19.3c-0.1,0.5-0.2,1-0.3,1.5
		c-2.9,10.9-13.2,18.1-24.4,16.9s-19.8-10.3-20.4-21.6c-0.5-11.4,7-21.4,18-23.9l-0.5-2.5l10.4,5.1l-7.4,9l-0.7-3.4
		c-6.8,1.6-11.5,7.7-11.2,14.7c0.2,7,5.5,12.7,12.3,13.7c6.9,1,13.4-3.2,15.6-9.8c0,0,0-0.1,0.1-0.1v-0.1l0,0v-0.1l0,0v-0.1l0,0
		c0-0.2,0.1-0.2,0.1-0.4c0.5-1.8,0.6-3.7,0.4-5.6l0,0l0,0v-0.1l0,0c-0.1-0.4-0.2-0.8-0.2-1.2v-0.1l0,0V74l0,0v-0.1l0,0v-0.1l0,0
		v-0.1l0,0l0,0v-0.1l0,0l0,0l0,0v-0.1l0,0v-0.1l0,0v-0.1l0,0v-0.1v-0.1h28.3c2-3.4,5.7-5.1,9.5-4.3c3.8,0.7,6.7,3.7,7.4,7.5
		C182.5,80.2,180.8,84,177.4,85.9z"/>
	<path class="st13" d="M147.6,53.2l9.2,15.8h-18.2L147.6,53.2z"/>
</g>
</svg>
