<?xml version="1.0" encoding="utf-8"?>
<!-- Generator: Adobe Illustrator 25.2.0, SVG Export Plug-In . SVG Version: 6.00 Build 0)  -->
<svg version="1.1" id="Layer_1" xmlns:v="https://vecta.io/nano"
	 xmlns="http://www.w3.org/2000/svg" xmlns:xlink="http://www.w3.org/1999/xlink" x="0px" y="0px" width="202" height="134" viewBox="0 0 202 134"
	 style="enable-background:new 0 0 202 134;" xml:space="preserve">
<style type="text/css">
	.st0{opacity:0.9;clip-path:url(#SVGID_2_);}
	.st1{fill:url(#SVGID_3_);}
	.st2{fill:url(#SVGID_4_);}
	.st3{fill:url(#SVGID_5_);}
	.st4{fill:url(#SVGID_6_);}
	.st5{fill:url(#SVGID_7_);}
	.st6{fill:url(#SVGID_8_);}
	.st7{fill:#DDDDDC;}
	.st8{fill:url(#SVGID_9_);}
	.st9{fill:#E3E5E5;}
	.st10{fill:none;stroke:url(#SVGID_10_);stroke-width:2;stroke-linecap:round;stroke-miterlimit:10;}
	.st11{fill:none;stroke:url(#SVGID_11_);stroke-width:2;stroke-linecap:round;stroke-miterlimit:10;}
	.st12{fill:url(#SVGID_12_);}
	.st13{fill:#FFFFFF;}
	.st14{fill:#334E5C;}
	.st15{opacity:0.8;fill:none;stroke:#FFFFFF;stroke-width:2;stroke-linecap:round;stroke-miterlimit:10;}
	.st16{fill:#EEC31B;}
	.st17{fill:url(#SVGID_13_);}
	.st18{fill:url(#SVGID_14_);}
</style>
<g>
	<defs>
		<rect id="SVGID_1_" y="0" width="202" height="133.7"/>
	</defs>
	<clipPath id="SVGID_2_">
		<use xlink:href="#SVGID_1_"  style="overflow:visible;"/>
	</clipPath>
	<g class="st0">
		<g>
			<g>
				<g>
					
						<linearGradient id="SVGID_3_" gradientUnits="userSpaceOnUse" x1="113.0768" y1="114.7496" x2="138.6372" y2="114.7496" gradientTransform="matrix(0.9747 -0.2235 0.2235 0.9747 -30.9892 31.5789)">
						<stop  offset="0" style="stop-color:#016FB6"/>
						<stop  offset="1" style="stop-color:#5EB8D1"/>
					</linearGradient>
					<path class="st1" d="M129.8,112.4c0.1,0.3,0.1,0.6,0.2,0.9c1.1,7-3.7,13.5-10.6,14.6c-5,0.8-9.9-1.4-12.7-5.6
						c-0.7-1-1.2-2.1-1.5-3.3c-0.1-0.3-0.2-0.6-0.2-0.9c-1.6-6.9,2.7-13.7,9.6-15.3C121.3,101.3,128.2,105.6,129.8,112.4
						C129.8,112.4,129.8,112.4,129.8,112.4z"/>
				</g>
				<g>
					<linearGradient id="SVGID_4_" gradientUnits="userSpaceOnUse" x1="17.1709" y1="49.6363" x2="47.2879" y2="49.6363">
						<stop  offset="0" style="stop-color:#FCE87E"/>
						<stop  offset="1" style="stop-color:#FCE87E"/>
					</linearGradient>
					<path class="st2" d="M17.2,60.9l3.4,3.9c0.3-0.8,0.7-1.8,1.3-2.8l22.8-22.6c0.9-0.5,1.8-0.9,2.6-1.2L44,34.5
						c-1.6,0.7-3.3,1.7-5.1,2.8l-11.5,8.1l-7.7,11.1C18.7,58,17.9,59.5,17.2,60.9L17.2,60.9z"/>
					<g>
						<linearGradient id="SVGID_5_" gradientUnits="userSpaceOnUse" x1="19.6988" y1="53.739" x2="52.7598" y2="53.739">
							<stop  offset="0" style="stop-color:#F9A75E"/>
							<stop  offset="1" style="stop-color:#FCC99C"/>
						</linearGradient>
						<path class="st3" d="M52.8,53.7c0-5.1-2.3-9.7-5.9-12.8c0,0,0,0,0,0c-1.4-1.2-2.9-2.1-4.6-2.8v0c-1.9-0.7-3.9-1.1-6-1.1l0,0
							c-9.1,0-16.5,7.5-16.5,16.7c0,0,0,0.1,0,0.1c0,0,0,0,0,0c0,2.1,0.4,4.2,1.2,6l0,0l0,0v0l0,0c0.7,1.7,1.6,3.3,2.8,4.7l0,0
							c3,3.6,7.5,5.9,12.6,5.9c0.3,0,0.6,0,0.9,0l0,0c8.4-0.5,15.1-7.2,15.6-15.7l0,0l0,0C52.7,54.4,52.8,54.1,52.8,53.7z"/>
						<linearGradient id="SVGID_6_" gradientUnits="userSpaceOnUse" x1="17.1709" y1="60.8947" x2="17.1716" y2="60.8947">
							<stop  offset="0" style="stop-color:#F9A75E"/>
							<stop  offset="1" style="stop-color:#FCC99C"/>
						</linearGradient>
						<polygon class="st4" points="17.2,60.9 17.2,60.9 17.2,60.9 17.2,60.9 						"/>
					</g>
					<linearGradient id="SVGID_7_" gradientUnits="userSpaceOnUse" x1="14.9128" y1="53.2865" x2="56.3866" y2="53.2865">
						<stop  offset="0" style="stop-color:#FCE87E"/>
						<stop  offset="1" style="stop-color:#FCE87E"/>
					</linearGradient>
					<path class="st5" d="M55,33.9c-2.1-2.1-6.1-1.7-11,0.6l3.3,3.7h0c1.7-0.6,3-0.6,3.7,0.1c2.2,2.2-2.8,10.8-11.2,19.2
						c-8.4,8.4-17,13.4-19.2,11.2c-0.7-0.7-0.7-2.1,0-3.8l-3.4-3.9c-2.6,5.2-3.1,9.6-0.9,11.8c4.1,4.1,16-1.3,26.7-12
						C53.7,49.9,59.1,38,55,33.9L55,33.9z"/>
				</g>
				<g>
					
						<linearGradient id="SVGID_8_" gradientUnits="userSpaceOnUse" x1="121.8205" y1="56.8241" x2="168.25" y2="56.8241" gradientTransform="matrix(0.994 0.109 -0.109 0.994 10.9264 -13.9333)">
						<stop  offset="0" style="stop-color:#016FB6"/>
						<stop  offset="1" style="stop-color:#78469A"/>
					</linearGradient>
					<path class="st6" d="M149.5,55.3c-3.4-0.8-6.9,1.3-7.7,4.7s1.3,6.9,4.7,7.7c3.4,0.8,6.9-1.3,7.7-4.7S152.9,56.1,149.5,55.3z
						 M167,55.1c-3.4-0.8-6.9,1.3-7.7,4.7c-0.8,3.4,1.3,6.9,4.7,7.7c3.4,0.8,6.9-1.3,7.7-4.7C172.5,59.4,170.4,56,167,55.1z
						 M134,47.2c-3.4-0.8-6.9,1.3-7.7,4.7c-0.8,3.4,1.3,6.9,4.7,7.7c3.4,0.8,6.9-1.3,7.7-4.7C139.5,51.5,137.4,48,134,47.2z"/>
					<path class="st7" d="M135.3,30.8c12-3.9,29,0.2,37.9,9.2c8.9,9,6.4,19.5-5.6,23.3c-12,3.9-29-0.2-37.9-9.2
						S123.3,34.7,135.3,30.8z"/>
					
						<linearGradient id="SVGID_9_" gradientUnits="userSpaceOnUse" x1="113.7909" y1="35.7668" x2="181.3726" y2="35.7668" gradientTransform="matrix(0.994 0.109 -0.109 0.994 10.9264 -13.9333)">
						<stop  offset="0" style="stop-color:#016FB6"/>
						<stop  offset="1" style="stop-color:#78469A"/>
					</linearGradient>
					<path class="st8" d="M133.7,18.2c14.7-4.5,35.6,0.5,46.7,11.3s8,23.2-6.7,27.7c-14.7,4.5-35.6-0.5-46.7-11.3
						S119,22.8,133.7,18.2z"/>
					<path class="st9" d="M161,7.8c11.4,2.8,18.4,14.2,15.7,25.6S163.4,47.7,152,45s-19.4-10.1-16.6-21.5S149.6,5.1,161,7.8z"/>
					
						<linearGradient id="SVGID_10_" gradientUnits="userSpaceOnUse" x1="132.025" y1="26.9891" x2="138.2618" y2="26.9891" gradientTransform="matrix(0.994 0.109 -0.109 0.994 10.9264 -13.9333)">
						<stop  offset="0" style="stop-color:#97C93C"/>
						<stop  offset="1" style="stop-color:#BAD76E"/>
					</linearGradient>
					<path class="st10" d="M143.8,33.8c0,0-5.5-0.5-2.6-12.4"/>
					
						<linearGradient id="SVGID_11_" gradientUnits="userSpaceOnUse" x1="157.9774" y1="30.5061" x2="166.8499" y2="30.5061" gradientTransform="matrix(0.994 0.109 -0.109 0.994 10.9264 -13.9333)">
						<stop  offset="0" style="stop-color:#97C93C"/>
						<stop  offset="1" style="stop-color:#BAD76E"/>
					</linearGradient>
					<path class="st11" d="M165.1,39c0,0,5.1,2.1,8-9.8"/>
					
						<linearGradient id="SVGID_12_" gradientUnits="userSpaceOnUse" x1="134.3695" y1="28.5255" x2="161.5638" y2="28.5255" gradientTransform="matrix(0.994 0.109 -0.109 0.994 10.9264 -13.9333)">
						<stop  offset="0" style="stop-color:#97C93C"/>
						<stop  offset="1" style="stop-color:#BAD76E"/>
					</linearGradient>
					<path class="st12" d="M152,45c4.6,1.1,9.1,1.3,13,0.4l3.4-13.9c1.7-6.9-2.5-13.7-9.4-15.4s-13.7,2.5-15.4,9.4l-3.4,13.9
						C143.3,42,147.4,43.8,152,45z"/>
					<path class="st13" d="M155,32.6c2.1,0.5,3.7,1.5,4.6,2.7c1-0.8,1.7-2,2.1-3.3c0.8-3.4-1.3-6.9-4.7-7.7
						c-3.4-0.8-6.9,1.3-7.7,4.7c-0.3,1.3-0.2,2.7,0.3,3.9C151,32.3,152.9,32.1,155,32.6z"/>
					<path class="st14" d="M152.9,32.3c0.7,0,1.4,0.1,2.1,0.3c0.7,0.2,1.4,0.4,2,0.7c0.8-0.4,1.4-1.1,1.6-2c0.4-1.7-0.6-3.4-2.3-3.8
						c-1.7-0.4-3.4,0.6-3.8,2.3C152.2,30.7,152.4,31.6,152.9,32.3z"/>
					<path class="st15" d="M162,12.4c0,0,11.3,3.4,10.9,20.1"/>
				</g>
				<path class="st16" d="M77.9,11.7h-1.6v-1.6c0-0.9-0.7-1.6-1.6-1.6s-1.6,0.7-1.6,1.6v1.6h-1.6c-0.9,0-1.6,0.7-1.6,1.6
					s0.7,1.6,1.6,1.6h1.6v1.6c0,0.9,0.7,1.6,1.6,1.6s1.6-0.7,1.6-1.6v-1.6h1.6c0.9,0,1.6-0.7,1.6-1.6S78.8,11.7,77.9,11.7z"/>
				<path class="st16" d="M150.4,90.5h-1v-1c0-0.6-0.5-1-1-1c-0.6,0-1,0.5-1,1v1h-1c-0.6,0-1,0.5-1,1s0.5,1,1,1h1v1c0,0.6,0.5,1,1,1
					c0.6,0,1-0.5,1-1v-1h1c0.6,0,1-0.5,1-1S151,90.5,150.4,90.5z"/>
				<path class="st16" d="M84.8,75.6h-2.3v-2.3c0-1.3-1-2.3-2.3-2.3c-1.3,0-2.3,1-2.3,2.3v2.3h-2.3c-1.3,0-2.3,1-2.3,2.3
					c0,1.3,1,2.3,2.3,2.3h2.3v2.3c0,1.3,1,2.3,2.3,2.3c1.3,0,2.3-1,2.3-2.3v-2.3h2.3c1.3,0,2.3-1,2.3-2.3
					C87.1,76.6,86.1,75.6,84.8,75.6z"/>
				<path class="st16" d="M53.5,104.5H52V103c0-0.8-0.7-1.5-1.5-1.5c-0.8,0-1.5,0.7-1.5,1.5v1.5h-1.5c-0.8,0-1.5,0.7-1.5,1.5
					s0.7,1.5,1.5,1.5h1.5v1.5c0,0.8,0.7,1.5,1.5,1.5c0.8,0,1.5-0.7,1.5-1.5v-1.5h1.5c0.8,0,1.5-0.7,1.5-1.5S54.4,104.5,53.5,104.5z"
					/>
			</g>
			
				<linearGradient id="SVGID_13_" gradientUnits="userSpaceOnUse" x1="-12.4014" y1="49.0843" x2="33.3576" y2="103.6178" gradientTransform="matrix(1.1144 -0.1608 0.1674 1.1598 76.677 -28.3559)">
				<stop  offset="0.1081" style="stop-color:#EEC31B;stop-opacity:0"/>
				<stop  offset="0.8396" style="stop-color:#F9E97F"/>
				<stop  offset="1" style="stop-color:#FFFFFF;stop-opacity:0.9"/>
			</linearGradient>
			<path class="st17" d="M70,31.8c-0.5,0.6,38.7,24.4,60.2,47.8c5.1,4.4-1.1,12.9-6.9,5.8C114.9,75.2,70,31.8,70,31.8z"/>
			
				<linearGradient id="SVGID_14_" gradientUnits="userSpaceOnUse" x1="62.521" y1="39.0249" x2="69.4532" y2="39.0249" gradientTransform="matrix(1.1268 6.489078e-03 6.489078e-03 1.1709 52.9523 37.0316)">
				<stop  offset="0" style="stop-color:#FCE87E"/>
				<stop  offset="1" style="stop-color:#FCE87E"/>
			</linearGradient>
			<path class="st18" d="M123.7,83.7c0.3,2.2,2.3,3.8,4.4,3.5c2.1-0.3,3.6-2.4,3.3-4.6c-0.3-2.2-2.3-3.8-4.4-3.5
				C124.8,79.4,123.4,81.5,123.7,83.7z"/>
		</g>
	</g>
</g>
</svg>
