<svg id="Layer_1" data-name="Layer 1" xmlns="http://www.w3.org/2000/svg" xmlns:xlink="http://www.w3.org/1999/xlink" width="202" height="134" viewBox="0 0 202 134"><defs><style>.cls-1,.cls-16,.cls-17,.cls-2{fill:none;stroke-linecap:round;stroke-width:2px;}.cls-1,.cls-2{stroke:#d1d3d4;stroke-linejoin:round;}.cls-2{stroke-dasharray:4.97 4.97;}.cls-3{fill:url(#linear-gradient);}.cls-4{fill:#231f20;opacity:0.1;}.cls-5{fill:url(#linear-gradient-2);}.cls-6{fill:url(#linear-gradient-3);}.cls-7{fill:url(#linear-gradient-4);}.cls-8{fill:url(#linear-gradient-5);}.cls-9{fill:url(#linear-gradient-6);}.cls-10{fill:url(#linear-gradient-7);}.cls-11{fill:#020202;}.cls-11,.cls-18{opacity:0.05;}.cls-12{fill:#ddd;}.cls-13{fill:url(#linear-gradient-8);}.cls-14,.cls-18{fill:#eaeaea;}.cls-15,.cls-24{fill:#cccccb;}.cls-16{stroke:#fff;opacity:0.8;}.cls-16,.cls-17,.cls-18{stroke-miterlimit:10;}.cls-17{stroke:#eaeaea;}.cls-18{stroke:#231f20;stroke-width:4px;}.cls-19{fill:url(#linear-gradient-9);}.cls-20{fill:url(#linear-gradient-10);}.cls-21{fill:url(#linear-gradient-11);}.cls-22{fill:#fac411;}.cls-23{fill:url(#linear-gradient-12);}.cls-24{opacity:0.5;}.cls-25{fill:url(#linear-gradient-13);}.cls-26{fill:url(#linear-gradient-14);}.cls-27{fill:url(#linear-gradient-15);}.cls-28{fill:#62ccec;}.cls-29{fill:#efc41c;}.cls-30{fill:url(#linear-gradient-16);}</style><linearGradient id="linear-gradient" x1="23.55" y1="56.36" x2="36.11" y2="56.36" gradientUnits="userSpaceOnUse"><stop offset="0" stop-color="#78479c"/><stop offset="1" stop-color="#0570b7"/></linearGradient><linearGradient id="linear-gradient-2" x1="95.02" y1="67.03" x2="106.18" y2="67.03" xlink:href="#linear-gradient"/><linearGradient id="linear-gradient-3" x1="92.54" y1="100.59" x2="110.21" y2="100.59" xlink:href="#linear-gradient"/><linearGradient id="linear-gradient-4" x1="41.57" y1="112.3" x2="58.27" y2="112.3" xlink:href="#linear-gradient"/><linearGradient id="linear-gradient-5" x1="30.2" y1="63.96" x2="56.35" y2="63.96" gradientUnits="userSpaceOnUse"><stop offset="0" stop-color="#a7a9ac"/><stop offset="1" stop-color="#bcbec0"/></linearGradient><linearGradient id="linear-gradient-6" x1="76.06" y1="61.78" x2="100.22" y2="61.78" gradientUnits="userSpaceOnUse"><stop offset="0" stop-color="#d2d3d3"/><stop offset="1" stop-color="#ddd"/></linearGradient><linearGradient id="linear-gradient-7" x1="47.39" y1="80.74" x2="102.34" y2="80.74" gradientUnits="userSpaceOnUse"><stop offset="0" stop-color="#bcbec0"/><stop offset="1" stop-color="#ddd"/></linearGradient><linearGradient id="linear-gradient-8" x1="44.71" y1="48.94" x2="76.02" y2="48.94" gradientTransform="translate(4.46 -5.04) rotate(4.96)" gradientUnits="userSpaceOnUse"><stop offset="0" stop-color="#2c87c2"/><stop offset="1" stop-color="#6fc7d2"/></linearGradient><linearGradient id="linear-gradient-9" x1="62.16" y1="74.73" x2="64.97" y2="74.73" xlink:href="#linear-gradient"/><linearGradient id="linear-gradient-10" x1="66.21" y1="73.64" x2="69.02" y2="73.64" xlink:href="#linear-gradient"/><linearGradient id="linear-gradient-11" x1="70.18" y1="72.69" x2="73" y2="72.69" xlink:href="#linear-gradient"/><linearGradient id="linear-gradient-12" x1="119.11" y1="48.6" x2="146.62" y2="48.6" xlink:href="#linear-gradient"/><linearGradient id="linear-gradient-13" x1="141.38" y1="22.57" x2="153.2" y2="22.57" xlink:href="#linear-gradient"/><linearGradient id="linear-gradient-14" x1="157.96" y1="42.37" x2="157.96" y2="42.37" xlink:href="#linear-gradient"/><linearGradient id="linear-gradient-15" x1="136.73" y1="33.84" x2="148.21" y2="33.84" xlink:href="#linear-gradient"/><linearGradient id="linear-gradient-16" x1="150.25" y1="-90.2" x2="169.8" y2="-90.2" gradientTransform="translate(-33.86 140.57) rotate(-12.91)" gradientUnits="userSpaceOnUse"><stop offset="0" stop-color="#0570b7"/><stop offset="1" stop-color="#5fb9d3"/></linearGradient></defs><path class="cls-1" d="M59,73.88s-.86.33-2.29,1"/><path class="cls-2" d="M52.27,77.07c-11.3,6.07-32,20.76-23.77,43.8,3,8.5,17.09,14.44,50.62-1.35,31.81-15,62.18,25,84-3.71,14.66-19.31,19.37-50.74-13.52-74.52"/><path class="cls-1" d="M147.59,39.86c-.68-.47-1.37-.93-2.08-1.38"/><path class="cls-3" d="M25.38,59.41a6.79,6.79,0,0,1-1.83-5c0-1.1,1.35-3.95,3.1-3.63s3.76,2.35,4.41,1.61-.2-1.2-.07-1.91,1.36-1.17,2.55.43a33.65,33.65,0,0,1,2.57,4.46L34,62.9l-2.41-.29S27.22,61.37,25.38,59.41Z"/><path class="cls-4" d="M32.54,60.2C27.32,61.27,23.65,56,23.65,56a9.92,9.92,0,0,0,1.59,3.47c1.84,1.95,6.18,3.19,6.18,3.19l.57.07C33.78,61.43,36.17,59.45,32.54,60.2Z"/><path class="cls-5" d="M105.15,65.37a6.15,6.15,0,0,1,.91,4.73c-.12,1-1.76,3.32-3.27,2.78s-3-2.62-3.7-2.06,0,1.1-.21,1.72-1.37.84-2.21-.75A30.44,30.44,0,0,1,95,67.45l3-6.4,2.11.61S103.79,63.37,105.15,65.37Z"/><path class="cls-6" d="M103.35,95.85a22.43,22.43,0,0,1,6.28.19c3.2.6-7.77,11.69-9.39,10.71s-7.7-8.4-7.7-8.4l8.09-4Z"/><path class="cls-7" d="M47.44,109.18a22.14,22.14,0,0,0-5.56,2.91C39.26,114,54,119.22,55,117.64s3.28-10.91,3.28-10.91l-9-.08Z"/><path class="cls-8" d="M54.84,73.64A50.19,50.19,0,0,1,37.08,67c-8.52-5.38-6.72-4.76-6.72-4.76a13.5,13.5,0,0,0,5.21-7.92s10.62,6.16,17.2,5.93S54.84,73.64,54.84,73.64Z"/><path class="cls-9" d="M76.69,54.41A40.06,40.06,0,0,1,92.93,58.3c8.16,4,6.08,2.9,7.17,3.36.78,2.59-2.27,7.9-4.44,7.45,0,0-9.94-3.73-15.81-2.88S76.69,54.41,76.69,54.41Z"/><path class="cls-10" d="M96.9,87.37a54.56,54.56,0,0,0-12.35-11,17.12,17.12,0,0,0-.22-6.48l-1.47-6.42A17.13,17.13,0,0,0,62.34,50.66h0A17.12,17.12,0,0,0,49.48,71.17L51,77.59a17,17,0,0,0,3.91,7.57,57.63,57.63,0,0,0-5.7,14.16c-2.77,11.33-1.46,9.92-1.46,9.92l9.55,2S61.92,97,67.57,91.76a5,5,0,0,0,.75-.89,17.22,17.22,0,0,0,3.15-.41h0a17.09,17.09,0,0,0,5.45-2.3,39.61,39.61,0,0,1,8.25,4.09,69.38,69.38,0,0,1,9.73,9l7.26-5.9S103.84,96,96.9,87.37Z"/><ellipse class="cls-11" cx="63.28" cy="55.55" rx="15.37" ry="12.14" transform="translate(-10.81 15.54) rotate(-12.91)"/><circle class="cls-12" cx="61.72" cy="47.95" r="18.69"/><ellipse class="cls-13" cx="60.37" cy="48.94" rx="15.66" ry="14.46" transform="matrix(1, -0.09, 0.09, 1, -4.01, 5.41)"/><path class="cls-14" d="M51.94,91.09A23.86,23.86,0,0,0,64.2,96c-.71,1.46-1.85,3.16-2.45,4.45a11.72,11.72,0,0,1-11.48-4.9A21.86,21.86,0,0,1,51.94,91.09Z"/><path class="cls-14" d="M84.84,92c3.59-2.91,5.88-5.57,7.34-9.76a16.54,16.54,0,0,1,3.82,4c-.89,7.62-6.86,8.35-7.23,8.43S86.79,93.5,84.84,92Z"/><path class="cls-14" d="M86.23,56s.24,7.57-1.44,10.45c1.45.29,2.94.61,4.34.79,3.61-3.91,2.28-8.54,2.19-9.57C89.14,56.84,86.23,56,86.23,56Z"/><path class="cls-14" d="M46.46,59.23c1.41,2.68-3.65,9.71-5.17,10.07-1.47-.71-3.06-1.67-4.42-2.43,2-1.71,5.44-5.77,4.36-9.74A39.86,39.86,0,0,1,46.46,59.23Z"/><rect class="cls-15" x="60.41" y="70.46" width="14.69" height="9.51" rx="2.71" transform="translate(-15.09 17.04) rotate(-12.91)"/><rect class="cls-14" x="60.41" y="69.51" width="14.69" height="9.51" rx="2.71" transform="translate(-14.88 17.02) rotate(-12.91)"/><path class="cls-16" d="M61.42,36.69a13.61,13.61,0,0,1,11.37,9.07"/><path class="cls-17" d="M74.48,37.57a12.52,12.52,0,0,1,3.65,7.91"/><path class="cls-17" d="M61.77,31.4h.43c-.43,0,5.82-.28,10,3.94"/><path class="cls-18" d="M49.76,70.74c-7.47-1.37-17.21-8.15-18.38-9.36"/><path class="cls-18" d="M83.06,65c1-.23,13.68,2.48,14.17,3.86"/><path class="cls-18" d="M78,87.12c.92.73,4.88,1.9,8.73,4.55,4.16,2.86,8.21,7.25,8.89,9"/><path class="cls-18" d="M48.46,109.4a56.84,56.84,0,0,1,2.76-13.5A52.41,52.41,0,0,1,55.6,85.8"/><circle class="cls-19" cx="63.56" cy="74.73" r="1.41"/><circle class="cls-20" cx="67.61" cy="73.64" r="1.41"/><circle class="cls-21" cx="71.59" cy="72.69" r="1.41"/><path class="cls-22" d="M136.94,52.8a9.58,9.58,0,0,1-4.32,6l0-2.42a17.37,17.37,0,0,1-4.45,3.72,17.41,17.41,0,0,1,.72-5.76l-2,1.33a9.55,9.55,0,0,1,2.65-6.85l5.77-3.1Z"/><path class="cls-23" d="M130.2,38.13l15.7,8.39c1,3.25,1,11.48-.52,12.57-11.23-10.46-24.84-13.56-26.16-13.94C118.1,44.84,125.67,37.7,130.2,38.13Z"/><path class="cls-12" d="M137.57,53.14A30.71,30.71,0,0,0,151.7,16.9a30.71,30.71,0,0,0-22.79,31.53Z"/><path class="cls-24" d="M137,34.28a57.23,57.23,0,0,0-5.82,15.37l-2.25-1.22A30.71,30.71,0,0,1,151.7,16.9C146.52,20.46,141.18,26.57,137,34.28Z"/><path class="cls-25" d="M153.15,28.24a27.42,27.42,0,0,1-6.27-2.5A28.6,28.6,0,0,1,144,24a25,25,0,0,1-2.65-2.14,30.69,30.69,0,0,1,10.26-4.92h.06A31,31,0,0,1,153.15,28.24Z"/><path class="cls-26" d="M158,42.37h0"/><circle class="cls-27" cx="142.47" cy="33.84" r="5.74"/><circle class="cls-28" cx="142.47" cy="33.84" r="3.86"/><path class="cls-29" d="M121.89,94.44H120.5V93.05a1.4,1.4,0,1,0-2.79,0v1.39h-1.39a1.39,1.39,0,1,0,0,2.78h1.39v1.4a1.4,1.4,0,0,0,2.79,0v-1.4h1.39a1.39,1.39,0,1,0,0-2.78Z"/><path class="cls-29" d="M61.38,8.69h-2v-2a2,2,0,0,0-4.07,0v2h-2a2,2,0,0,0,0,4.06h2v2a2,2,0,0,0,4.07,0v-2h2a2,2,0,1,0,0-4.06Z"/><path class="cls-29" d="M177.09,42.38h-1.36V41A1.36,1.36,0,1,0,173,41v1.35h-1.36a1.36,1.36,0,0,0,0,2.71H173v1.36a1.36,1.36,0,1,0,2.71,0V45.09h1.36a1.36,1.36,0,1,0,0-2.71Z"/><path class="cls-30" d="M111.5,14.72c0,.22.09.44.13.66a9.77,9.77,0,0,1-19,4.36c-.07-.22-.13-.43-.18-.66a9.78,9.78,0,0,1,19.06-4.37Z"/></svg>