<svg id="Layer_1" data-name="Layer 1" xmlns="http://www.w3.org/2000/svg" xmlns:xlink="http://www.w3.org/1999/xlink" viewBox="0 0 250 84"><defs><style>.cls-1,.cls-16,.cls-17,.cls-2,.cls-39,.cls-40{fill:none;stroke-linecap:round;stroke-width:2px;}.cls-1,.cls-2{stroke:#d1d3d4;stroke-linejoin:round;}.cls-2{stroke-dasharray:4.88 4.88;}.cls-3{fill:url(#linear-gradient);}.cls-4{fill:#231f20;opacity:0.1;}.cls-5{fill:url(#linear-gradient-2);}.cls-6{fill:url(#linear-gradient-3);}.cls-7{fill:url(#linear-gradient-4);}.cls-8{fill:url(#linear-gradient-5);}.cls-9{fill:url(#linear-gradient-6);}.cls-10{fill:url(#linear-gradient-7);}.cls-11{fill:#020202;}.cls-11,.cls-18{opacity:0.05;}.cls-12{fill:#ddd;}.cls-13{fill:url(#linear-gradient-8);}.cls-14,.cls-18{fill:#eaeaea;}.cls-15,.cls-24{fill:#cccccb;}.cls-16{stroke:#fff;opacity:0.8;}.cls-16,.cls-17,.cls-18,.cls-39,.cls-40{stroke-miterlimit:10;}.cls-17{stroke:#eaeaea;}.cls-18{stroke:#231f20;stroke-width:4px;}.cls-19{fill:url(#linear-gradient-9);}.cls-20{fill:url(#linear-gradient-10);}.cls-21{fill:url(#linear-gradient-11);}.cls-22{fill:#fac411;}.cls-23{fill:url(#linear-gradient-12);}.cls-24{opacity:0.5;}.cls-25{fill:url(#linear-gradient-13);}.cls-26{fill:url(#linear-gradient-14);}.cls-27{fill:url(#linear-gradient-15);}.cls-28{fill:#62ccec;}.cls-29{fill:#efc41c;}.cls-30{fill:url(#linear-gradient-16);}.cls-31{fill:url(#linear-gradient-17);}.cls-32{fill:url(#linear-gradient-18);}.cls-33{fill:url(#linear-gradient-19);}.cls-34{fill:url(#linear-gradient-20);}.cls-35{fill:url(#linear-gradient-21);}.cls-36{fill:url(#linear-gradient-22);}.cls-37{fill:url(#linear-gradient-23);}.cls-38{fill:#e4e6e6;}.cls-39{stroke:url(#linear-gradient-24);}.cls-40{stroke:url(#linear-gradient-25);}.cls-41{fill:url(#linear-gradient-26);}.cls-42{fill:#fff;}.cls-43{fill:#344e5c;}.cls-44{fill:url(#linear-gradient-27);}.cls-45{fill:url(#linear-gradient-28);}</style><linearGradient id="linear-gradient" x1="139.11" y1="35.28" x2="146.93" y2="35.28" gradientUnits="userSpaceOnUse"><stop offset="0" stop-color="#78479c"/><stop offset="1" stop-color="#0570b7"/></linearGradient><linearGradient id="linear-gradient-2" x1="183.6" y1="41.92" x2="190.54" y2="41.92" xlink:href="#linear-gradient"/><linearGradient id="linear-gradient-3" x1="182.05" y1="62.8" x2="193.05" y2="62.8" xlink:href="#linear-gradient"/><linearGradient id="linear-gradient-4" x1="150.32" y1="70.09" x2="160.72" y2="70.09" xlink:href="#linear-gradient"/><linearGradient id="linear-gradient-5" x1="143.25" y1="40.01" x2="159.52" y2="40.01" gradientUnits="userSpaceOnUse"><stop offset="0" stop-color="#a7a9ac"/><stop offset="1" stop-color="#bcbec0"/></linearGradient><linearGradient id="linear-gradient-6" x1="171.8" y1="38.65" x2="186.83" y2="38.65" gradientUnits="userSpaceOnUse"><stop offset="0" stop-color="#d2d3d3"/><stop offset="1" stop-color="#ddd"/></linearGradient><linearGradient id="linear-gradient-7" x1="153.95" y1="50.45" x2="188.15" y2="50.45" gradientUnits="userSpaceOnUse"><stop offset="0" stop-color="#bcbec0"/><stop offset="1" stop-color="#ddd"/></linearGradient><linearGradient id="linear-gradient-8" x1="152.28" y1="30.66" x2="171.77" y2="30.66" gradientTransform="translate(3.26 -13.91) rotate(4.96)" gradientUnits="userSpaceOnUse"><stop offset="0" stop-color="#2c87c2"/><stop offset="1" stop-color="#6fc7d2"/></linearGradient><linearGradient id="linear-gradient-9" x1="163.14" y1="46.71" x2="164.89" y2="46.71" xlink:href="#linear-gradient"/><linearGradient id="linear-gradient-10" x1="165.66" y1="46.03" x2="167.41" y2="46.03" xlink:href="#linear-gradient"/><linearGradient id="linear-gradient-11" x1="168.14" y1="45.44" x2="169.89" y2="45.44" xlink:href="#linear-gradient"/><linearGradient id="linear-gradient-12" x1="198.59" y1="30.45" x2="215.71" y2="30.45" xlink:href="#linear-gradient"/><linearGradient id="linear-gradient-13" x1="212.45" y1="14.24" x2="219.81" y2="14.24" xlink:href="#linear-gradient"/><linearGradient id="linear-gradient-14" x1="222.77" y1="26.57" x2="222.77" y2="26.57" xlink:href="#linear-gradient"/><linearGradient id="linear-gradient-15" x1="209.56" y1="21.26" x2="216.7" y2="21.26" xlink:href="#linear-gradient"/><linearGradient id="linear-gradient-16" x1="195.48" y1="-88.33" x2="207.65" y2="-88.33" gradientTransform="translate(11.19 141.85) rotate(-12.91)" gradientUnits="userSpaceOnUse"><stop offset="0" stop-color="#0570b7"/><stop offset="1" stop-color="#5fb9d3"/></linearGradient><linearGradient id="linear-gradient-17" x1="73.89" y1="-51.54" x2="89.8" y2="-51.54" xlink:href="#linear-gradient-16"/><linearGradient id="linear-gradient-18" x1="17.11" y1="32.45" x2="35.85" y2="32.45" gradientUnits="userSpaceOnUse"><stop offset="0" stop-color="#fde97e"/><stop offset="1" stop-color="#fde97e"/></linearGradient><linearGradient id="linear-gradient-19" x1="18.68" y1="35" x2="39.26" y2="35" gradientUnits="userSpaceOnUse"><stop offset="0" stop-color="#faa95f"/><stop offset="1" stop-color="#fdcb9d"/></linearGradient><linearGradient id="linear-gradient-20" x1="17.11" y1="39.46" x2="17.11" y2="39.46" xlink:href="#linear-gradient-19"/><linearGradient id="linear-gradient-21" x1="15.7" y1="34.72" x2="41.52" y2="34.72" xlink:href="#linear-gradient-18"/><linearGradient id="linear-gradient-22" x1="96.19" y1="96.54" x2="125.09" y2="96.54" gradientTransform="translate(-0.35 -70.15) rotate(6.26)" gradientUnits="userSpaceOnUse"><stop offset="0" stop-color="#0570b7"/><stop offset="1" stop-color="#78479c"/></linearGradient><linearGradient id="linear-gradient-23" x1="91.19" y1="83.43" x2="133.26" y2="83.43" xlink:href="#linear-gradient-22"/><linearGradient id="linear-gradient-24" x1="102.17" y1="77.97" x2="106.8" y2="77.97" gradientTransform="translate(-0.35 -70.15) rotate(6.26)" gradientUnits="userSpaceOnUse"><stop offset="0" stop-color="#99ca3c"/><stop offset="1" stop-color="#bbd86f"/></linearGradient><linearGradient id="linear-gradient-25" x1="118.32" y1="80.16" x2="124.6" y2="80.16" xlink:href="#linear-gradient-24"/><linearGradient id="linear-gradient-26" x1="104" y1="78.93" x2="120.93" y2="78.93" xlink:href="#linear-gradient-24"/><linearGradient id="linear-gradient-27" x1="15.74" y1="-44.2" x2="44.23" y2="-10.26" gradientTransform="matrix(1.11, -0.16, 0.17, 1.16, 40.51, 74.38)" gradientUnits="userSpaceOnUse"><stop offset="0.11" stop-color="#efc41c" stop-opacity="0"/><stop offset="0.84" stop-color="#faea7f"/><stop offset="1" stop-color="#fff" stop-opacity="0.9"/></linearGradient><linearGradient id="linear-gradient-28" x1="83.49" y1="-2.91" x2="87.81" y2="-2.91" gradientTransform="matrix(1.11, 0.17, -0.16, 1.16, -10.09, 42.34)" xlink:href="#linear-gradient-18"/></defs><path class="cls-1" d="M161.18,46.18s-.88.34-2.28,1"/><path class="cls-2" d="M154.62,49.53c-7.16,4.38-17,13.06-12.43,25.9,1.9,5.29,10.64,9,31.51-.84,19.8-9.32,38.7,15.59,52.3-2.31,8.91-11.72,11.91-30.62-6.95-45.29"/><path class="cls-1" d="M217.09,25.54c-.66-.47-1.35-.94-2.07-1.4"/><path class="cls-3" d="M140.25,37.18a4.26,4.26,0,0,1-1.14-3.13c0-.68.84-2.45,1.93-2.25s2.34,1.46,2.75,1-.13-.75,0-1.19.85-.73,1.59.27a22.08,22.08,0,0,1,1.6,2.78l-1.33,4.69-1.5-.19A10.39,10.39,0,0,1,140.25,37.18Z"/><path class="cls-4" d="M144.7,37.66c-3.24.67-5.53-2.62-5.53-2.62a6.1,6.1,0,0,0,1,2.16,10.63,10.63,0,0,0,3.85,2l.35,0C145.48,38.43,147,37.2,144.7,37.66Z"/><path class="cls-5" d="M189.9,40.89a3.82,3.82,0,0,1,.57,2.94c-.08.61-1.1,2.07-2,1.73s-1.88-1.63-2.3-1.28,0,.68-.13,1.07-.86.52-1.38-.47a18.67,18.67,0,0,1-1-2.7l1.85-4,1.31.37A9.5,9.5,0,0,1,189.9,40.89Z"/><path class="cls-6" d="M188.78,59.85a14.17,14.17,0,0,1,3.91.12c2,.38-4.84,7.28-5.84,6.67s-4.8-5.23-4.8-5.23l5-2.48Z"/><path class="cls-7" d="M154,68.15A14.15,14.15,0,0,0,150.52,70c-1.63,1.21,7.52,4.44,8.16,3.46s2-6.79,2-6.79l-5.61,0Z"/><path class="cls-8" d="M158.59,46a31.34,31.34,0,0,1-11.06-4.15c-5.3-3.35-4.18-3-4.18-3A8.43,8.43,0,0,0,146.59,34s6.61,3.83,10.71,3.69S158.59,46,158.59,46Z"/><path class="cls-9" d="M172.19,34.07a24.83,24.83,0,0,1,10.1,2.41c5.08,2.49,3.79,1.81,4.47,2.09.48,1.62-1.41,4.92-2.77,4.64,0,0-6.18-2.32-9.84-1.79S172.19,34.07,172.19,34.07Z"/><path class="cls-10" d="M184.77,54.58a33.83,33.83,0,0,0-7.69-6.82,10.57,10.57,0,0,0-.14-4l-.91-4a10.66,10.66,0,0,0-12.77-8h0a10.66,10.66,0,0,0-8,12.77l.92,4a10.46,10.46,0,0,0,2.43,4.71A36.27,36.27,0,0,0,155.05,62c-1.72,7.06-.91,6.18-.91,6.18l6,1.26s2.91-8.88,6.42-12.14a3.35,3.35,0,0,0,.47-.55,11.22,11.22,0,0,0,2-.26h0a10.79,10.79,0,0,0,3.39-1.43,24.46,24.46,0,0,1,5.13,2.55,42.53,42.53,0,0,1,6.06,5.57L188,59.51S189.08,59.92,184.77,54.58Z"/><ellipse class="cls-11" cx="163.84" cy="34.77" rx="9.57" ry="7.56" transform="translate(-3.63 37.49) rotate(-12.91)"/><circle class="cls-12" cx="162.87" cy="30.04" r="11.64"/><ellipse class="cls-13" cx="162.03" cy="30.66" rx="9.75" ry="9" transform="translate(-2.05 14.14) rotate(-4.96)"/><path class="cls-14" d="M156.78,56.9A14.94,14.94,0,0,0,164.41,60c-.44.91-1.15,2-1.52,2.77a7.31,7.31,0,0,1-7.15-3A13.29,13.29,0,0,1,156.78,56.9Z"/><path class="cls-14" d="M177.26,57.49a12.89,12.89,0,0,0,4.57-6.08,10.36,10.36,0,0,1,2.38,2.5c-.56,4.75-4.28,5.2-4.51,5.25A11.23,11.23,0,0,1,177.26,57.49Z"/><path class="cls-14" d="M178.13,35.06s.14,4.71-.9,6.51c.9.18,1.83.38,2.7.49a6.61,6.61,0,0,0,1.36-6C179.94,35.57,178.13,35.06,178.13,35.06Z"/><path class="cls-14" d="M153.37,37.06c.88,1.67-2.27,6-3.22,6.27-.91-.44-1.9-1-2.75-1.51,1.27-1.07,3.39-3.59,2.71-6.06A24.46,24.46,0,0,1,153.37,37.06Z"/><rect class="cls-15" x="162.05" y="44.05" width="9.14" height="5.92" rx="2.71" transform="translate(-6.29 38.42) rotate(-12.91)"/><rect class="cls-14" x="162.05" y="43.46" width="9.14" height="5.92" rx="2.71" transform="translate(-6.16 38.41) rotate(-12.91)"/><path class="cls-16" d="M162.68,23a8.47,8.47,0,0,1,7.08,5.65"/><path class="cls-17" d="M170.81,23.58a7.76,7.76,0,0,1,2.27,4.93"/><path class="cls-17" d="M162.9,19.74h.27a9.37,9.37,0,0,1,6.22,2.46"/><path class="cls-18" d="M155.43,44.22c-4.65-.85-10.72-5.07-11.45-5.82"/><path class="cls-18" d="M176.15,40.67c.62-.14,8.52,1.54,8.82,2.4"/><path class="cls-18" d="M173,54.42c.58.46,3,1.19,5.44,2.84,2.58,1.78,5.11,4.51,5.53,5.59"/><path class="cls-18" d="M154.61,68.29a35.82,35.82,0,0,1,1.73-8.4,31.77,31.77,0,0,1,2.72-6.29"/><circle class="cls-19" cx="164.02" cy="46.71" r="0.88"/><circle class="cls-20" cx="166.54" cy="46.03" r="0.88"/><circle class="cls-21" cx="169.01" cy="45.44" r="0.88"/><path class="cls-22" d="M209.69,33.06a6,6,0,0,1-2.69,3.7v-1.5a10.84,10.84,0,0,1-2.77,2.31,10.94,10.94,0,0,1,.45-3.58l-1.26.83a6,6,0,0,1,1.65-4.27l3.59-1.93Z"/><path class="cls-23" d="M205.5,23.93l9.76,5.22c.64,2,.66,7.15-.32,7.82a38.53,38.53,0,0,0-16.28-8.67C198,28.1,202.68,23.66,205.5,23.93Z"/><path class="cls-12" d="M210.08,33.27a19.11,19.11,0,0,0,8.79-22.56,19.15,19.15,0,0,0-14.18,19.63Z"/><path class="cls-24" d="M209.71,21.53a35.71,35.71,0,0,0-3.62,9.57l-1.4-.76a19.15,19.15,0,0,1,14.18-19.63A31.71,31.71,0,0,0,209.71,21.53Z"/><path class="cls-25" d="M219.78,17.77a17.5,17.5,0,0,1-3.9-1.55,20.67,20.67,0,0,1-1.78-1.11,17,17,0,0,1-1.65-1.32,19.07,19.07,0,0,1,6.39-3.07h0A19.16,19.16,0,0,1,219.78,17.77Z"/><path class="cls-26" d="M222.77,26.57h0"/><circle class="cls-27" cx="213.13" cy="21.26" r="3.57"/><circle class="cls-28" cx="213.13" cy="21.26" r="2.4"/><path class="cls-29" d="M200.32,59h-.86v-.87a.87.87,0,0,0-1.74,0V59h-.86a.87.87,0,1,0,0,1.73h.86v.87a.87.87,0,1,0,1.74,0v-.87h.86a.87.87,0,1,0,0-1.73Z"/><path class="cls-29" d="M162.66,5.6h-1.27V4.33a1.27,1.27,0,0,0-2.53,0V5.6h-1.27a1.27,1.27,0,0,0,0,2.53h1.27V9.4a1.27,1.27,0,1,0,2.53,0V8.13h1.27a1.27,1.27,0,1,0,0-2.53Z"/><path class="cls-29" d="M234.68,26.58h-.84v-.85a.85.85,0,0,0-1.69,0v.85h-.85a.84.84,0,0,0,0,1.68h.85v.85a.85.85,0,0,0,1.69,0v-.85h.84a.84.84,0,1,0,0-1.68Z"/><path class="cls-30" d="M193.85,9.35a3.1,3.1,0,0,1,.08.42A6.08,6.08,0,0,1,182.83,14a6,6,0,0,1-.73-1.56c0-.13-.08-.27-.11-.41a6.08,6.08,0,0,1,11.86-2.72Z"/><path class="cls-31" d="M87.2,71.55c0,.18.08.36.11.54a8,8,0,0,1-14.52,5.58,7.62,7.62,0,0,1-1-2c0-.17-.1-.35-.14-.53A8,8,0,0,1,87.2,71.54Z"/><path class="cls-32" d="M17.11,39.46l2.13,2.44a12.12,12.12,0,0,1,.82-1.75L34.23,26.06a12.13,12.13,0,0,1,1.62-.73l-2-2.33a25.4,25.4,0,0,0-3.16,1.75l-7.15,5-4.82,6.91a26.6,26.6,0,0,0-1.57,2.77Z"/><path class="cls-33" d="M39.26,35a10.42,10.42,0,0,0-3.68-8h0a10.33,10.33,0,0,0-2.89-1.73h0a10.25,10.25,0,0,0-3.72-.7h0A10.34,10.34,0,0,0,18.68,35v.07h0a10.39,10.39,0,0,0,.72,3.76h0a10.52,10.52,0,0,0,1.74,2.92h0A10.23,10.23,0,0,0,29,45.4l.57,0h0a10.35,10.35,0,0,0,9.7-9.78h0C39.25,35.41,39.26,35.2,39.26,35Z"/><polygon class="cls-34" points="17.11 39.46 17.11 39.46 17.11 39.46 17.11 39.46 17.11 39.46"/><path class="cls-35" d="M40.67,22.65c-1.27-1.27-3.81-1-6.86.35l2,2.33h0c1.08-.37,1.89-.38,2.32.05,1.37,1.37-1.75,6.71-7,11.93s-10.56,8.35-11.94,7c-.43-.43-.41-1.27,0-2.38l-2.13-2.44c-1.59,3.26-1.91,6-.57,7.33,2.53,2.52,10-.83,16.64-7.5s10-14.11,7.49-16.64Z"/><path class="cls-36" d="M99.48,36a4,4,0,1,0,2.92,4.78A4,4,0,0,0,99.48,36Zm10.9-.09a4,4,0,1,0,2.92,4.78A4,4,0,0,0,110.38,35.88Zm-20.56-5a4,4,0,1,0,2.93,4.79A4,4,0,0,0,89.82,30.91Z"/><path class="cls-12" d="M90.66,20.72c7.49-2.44,18,.11,23.6,5.7s4,12.11-3.51,14.51-18-.11-23.6-5.7S83.17,23.15,90.66,20.72Z"/><path class="cls-37" d="M89.66,12.9c9.17-2.82,22.18.32,29.06,7s5,14.43-4.17,17.24-22.18-.33-29.06-7S80.47,15.74,89.66,12.9Z"/><path class="cls-38" d="M106.62,6.42a13.22,13.22,0,0,1,9.74,16c-1.72,7.1-8.23,8.89-15.33,7.17S89,23.26,90.67,16.16A13.22,13.22,0,0,1,106.62,6.42Z"/><path class="cls-39" d="M95.91,22.62s-3.43-.29-1.63-7.72"/><path class="cls-40" d="M109.15,25.82s3.18,1.31,5-6.12"/><path class="cls-41" d="M101,29.54a17.22,17.22,0,0,0,8.1.23l2.09-8.64a7.93,7.93,0,1,0-15.41-3.72L93.72,26A17,17,0,0,0,101,29.54Z"/><path class="cls-42" d="M102.89,21.85a5.15,5.15,0,0,1,2.89,1.71,4,4,0,0,0,1.28-2.08,4,4,0,1,0-7.52.57A5.21,5.21,0,0,1,102.89,21.85Z"/><path class="cls-43" d="M101.58,21.68a6.82,6.82,0,0,1,1.31.17,6.47,6.47,0,0,1,1.24.44,2,2,0,1,0-2.55-.61Z"/><path class="cls-16" d="M107.25,9.28s7,2.13,6.76,12.52"/><path class="cls-29" d="M54.92,8.82h-1v-1a1,1,0,1,0-1.95,0v1H51a1,1,0,0,0,0,1.95h1v1a1,1,0,1,0,1.95,0v-1h1a1,1,0,1,0,0-1.95Z"/><path class="cls-29" d="M100,57.86h-.65v-.65a.66.66,0,0,0-1.31,0v.65h-.65a.66.66,0,0,0-.65.66.65.65,0,0,0,.65.65h.65v.65a.66.66,0,0,0,1.31,0v-.65H100a.65.65,0,0,0,.65-.65A.66.66,0,0,0,100,57.86Z"/><path class="cls-29" d="M59.19,48.61H57.77V47.19a1.43,1.43,0,0,0-2.86,0v1.42H53.48a1.43,1.43,0,0,0,0,2.86h1.43V52.9a1.43,1.43,0,1,0,2.86,0V51.47h1.42a1.43,1.43,0,1,0,0-2.86Z"/><path class="cls-29" d="M39.73,66.62h-.95v-1a.95.95,0,1,0-1.9,0v1h-1a1,1,0,1,0,0,1.91h1v1a1,1,0,1,0,1.9,0v-1h.95a1,1,0,1,0,0-1.91Z"/><path class="cls-44" d="M50,21.35c-.35.4,24.1,15.22,37.47,29.77,3.2,2.74-.71,8-4.32,3.62C78,48.39,50,21.35,50,21.35Z"/><ellipse class="cls-45" cx="85.82" cy="53.31" rx="2.43" ry="2.53" transform="translate(-6.74 12.81) rotate(-8.21)"/></svg>